<svg width="60" height="60" viewBox="0 0 60 60" fill="none" xmlns="http://www.w3.org/2000/svg">
<path d="M28.0077 1.24219C26.3554 1.45312 24.2108 2.28515 22.7226 3.28125C21.8319 3.8789 20.0624 5.64844 19.9687 6.04687C19.8632 6.46875 20.0038 6.89062 20.3319 7.10156C20.7304 7.35937 21.1288 7.24219 21.5858 6.70312C23.1093 4.95703 24.6327 3.94922 26.6835 3.3164C27.5976 3.04687 27.9023 3.01172 29.414 3.01172C30.9257 3.01172 31.2304 3.04687 32.1679 3.32812C37.9101 5.0625 40.8515 11.1562 38.6249 16.6641C37.4882 19.4883 34.9101 21.7148 31.8749 22.5234C30.6093 22.8516 28.3593 22.875 27.1874 22.5703C24.0116 21.7383 21.4335 19.582 20.2851 16.7812C19.5116 14.9297 19.3007 13.0547 19.6288 11.25C19.8983 9.80859 19.8866 9.60937 19.5116 9.29297C18.8319 8.70703 18.2577 9.12891 17.9648 10.4297C17.7304 11.5078 17.6952 14.0508 17.9179 15.0586C18.8905 19.6523 22.0898 23.0391 26.5898 24.2227C27.5507 24.4805 27.9726 24.5273 29.414 24.5273C30.8788 24.5273 31.2773 24.4805 32.2851 24.2109C36.5741 23.0859 39.7265 19.8984 40.8163 15.5859C41.1796 14.1562 41.1679 11.6133 40.8046 10.1484C39.5038 4.95703 35.0976 1.38281 29.8241 1.23047C29.0507 1.20703 28.2304 1.21875 28.0077 1.24219Z" fill="#706F6F"/>
<path d="M32.7773 8.57816C32.6132 8.7305 31.9453 9.50394 31.2773 10.3125C30.6093 11.1211 29.5195 12.4219 28.8515 13.2071L27.6445 14.6485L26.414 13.5938C25.3828 12.7149 25.1132 12.5391 24.7851 12.5391C24.0937 12.5391 23.6484 13.3243 24.0586 13.8282C24.1406 13.9336 24.9257 14.6368 25.8164 15.3868C27.6796 16.9688 27.8554 17.0274 28.5117 16.3125C28.7461 16.0782 30.1171 14.461 31.5703 12.7149C33.8086 10.043 34.2187 9.50394 34.2187 9.17581C34.2187 8.918 34.125 8.7305 33.914 8.56644C33.5039 8.25003 33.1289 8.25003 32.7773 8.57816Z" fill="#706F6F"/>
<path d="M11.3086 25.3945C9.98438 25.5703 8.90625 25.9922 8.32031 26.5547C8.15625 26.707 7.78125 26.9063 7.47656 26.9883C5.97656 27.4453 5.00391 28.6875 4.61719 30.6797C4.37109 31.957 4.38281 38.1211 4.62891 39.082C4.89844 40.0899 5.37891 41.0742 6.08203 41.9883C6.41016 42.4336 6.65625 42.832 6.62109 42.8789C6.59766 42.9375 5.55469 43.582 4.32422 44.3086C1.6875 45.8789 0.984375 46.4649 0.445312 47.5547L0.0585938 48.3399V51.9375V55.5469L0.386719 55.8633L0.703125 56.1914L9.29297 56.25L17.8711 56.3086L17.9414 57.1875C17.9766 57.668 18.0469 58.1602 18.0938 58.2774C18.2695 58.6641 18.8086 58.8281 19.8398 58.8281C20.9648 58.8281 21.2812 58.6758 21.3984 58.043C21.457 57.7383 21.4102 57.6094 21.1758 57.375C20.9297 57.1289 20.7539 57.0703 20.2734 57.0703H19.6758L19.7109 54.0469L19.7461 51.0117L20.0625 50.543C20.3672 50.086 21.0469 49.5703 22.207 48.9258L22.793 48.5977L24.668 49.8164C26.3789 50.9297 26.5898 51.0352 27.1055 51.0352C27.5977 51.0352 27.6562 51.0586 27.6562 51.293C27.6562 51.4336 27.2578 52.418 26.7773 53.4727C26.2969 54.5274 25.8984 55.4649 25.8984 55.5586C25.8984 55.6524 26.0625 56.0039 26.25 56.3555C26.4492 56.707 26.6016 57.0117 26.6016 57.0352C26.6016 57.0469 26.1094 57.0703 25.5 57.0703C24.1875 57.0703 24.0469 57.1172 23.8477 57.586C23.6719 57.9844 23.7891 58.418 24.1172 58.6641C24.4336 58.9102 41.0156 58.8985 41.4727 58.6524C41.9062 58.4297 41.9883 58.2422 42.0586 57.1875L42.1289 56.3086L50.707 56.25L59.2969 56.1914L59.6133 55.8633L59.9414 55.5469L59.9766 52.4063C60.0234 48.3399 59.8945 47.6602 58.8516 46.5C58.3242 45.9141 57.6562 45.457 55.1719 44.0156L53.2148 42.8672L53.8008 42.1524C54.4922 41.2969 55.125 40.0664 55.3711 39.082C55.6289 38.086 55.6289 31.6406 55.3711 30.668C54.8672 28.7344 53.5195 27.2344 51.4102 26.25C49.1367 25.1953 46.7344 25.1016 44.9414 25.9805C44.625 26.1445 44.2266 26.4024 44.0625 26.543C43.8984 26.6953 43.5117 26.9063 43.1836 27.0235C41.8711 27.457 41.0625 28.3594 40.5352 29.9414C40.2891 30.7149 40.2656 30.9844 40.2188 34.4531C40.1836 37.5586 40.207 38.2735 40.3711 38.9649C40.6055 40.0195 41.2266 41.2617 41.9531 42.1641L42.5273 42.8789L40.5703 44.0156C38.3438 45.3164 37.6875 45.7383 37.2656 46.125L36.9609 46.3945L36.1758 45.9258L35.3789 45.457L35.625 45.1406C36.3867 44.1563 37.0312 43.043 37.3242 42.1758C37.6523 41.2149 37.6523 41.1211 37.7109 38.1445C37.7695 34.3945 37.6641 33.3399 37.0898 32.1328C36.5859 31.0547 35.3438 29.7656 34.207 29.1328C31.3242 27.5391 28.1133 27.5508 26.0859 29.168C25.8398 29.3672 25.5586 29.5313 25.4648 29.5313C25.1133 29.5313 24.1641 30.1289 23.6836 30.6445C23.1094 31.2656 22.8164 31.8516 22.5352 33C22.2656 34.0899 22.2305 40.582 22.4883 41.6016C22.7812 42.7735 23.2969 43.7461 24.375 45.1406L24.6211 45.457L23.8242 45.9258L23.0391 46.3945L22.6758 46.0664C22.2773 45.7266 21.4922 45.2344 19.0195 43.7813L17.4727 42.8672L18.0469 42.1641C18.7617 41.2852 19.3828 40.0313 19.6172 39.0235C19.875 37.9336 19.8867 31.6406 19.6289 30.668C19.125 28.7461 17.7773 27.2344 15.6445 26.25C14.2734 25.6055 12.4219 25.2422 11.3086 25.3945ZM13.6406 27.375C15.3164 27.7852 17.0273 29.0391 17.6602 30.3281C17.9648 30.9375 17.9883 31.125 18.0234 32.6016L18.0703 34.2188H17.5781C16.9219 34.2188 16.5234 33.9844 15.375 32.9649C13.4531 31.2656 12.8203 31.0195 10.3828 31.0781C8.88281 31.1133 8.64844 31.1367 8.35547 31.3594C7.81641 31.7578 7.54688 32.2735 7.26562 33.3985C7.07812 34.1485 6.92578 34.5117 6.76172 34.6289C6.19922 35.0156 6.17578 34.9453 6.23438 32.836C6.28125 31.1836 6.32812 30.7735 6.55078 30.211C6.87891 29.3672 7.53516 28.7461 8.22656 28.6406C8.56641 28.582 8.87109 28.418 9.19922 28.1133C10.2539 27.1406 11.6836 26.9063 13.6406 27.375ZM49.8047 27.5039C50.2852 27.6563 50.918 27.9258 51.2109 28.0899C52.0312 28.5703 53.0508 29.6133 53.4141 30.3399C53.707 30.9375 53.7305 31.1367 53.7656 32.6016L53.8125 34.2188H53.3203C52.6641 34.2188 52.3477 34.0313 51.0117 32.8711C50.3672 32.3086 49.5234 31.6992 49.1016 31.4883C48.3633 31.125 48.293 31.1133 46.5586 31.0781C45.0586 31.043 44.7188 31.0664 44.3555 31.2422C43.7109 31.5469 43.3125 32.1914 43.0078 33.3985C42.8203 34.1485 42.668 34.5117 42.5039 34.6289C41.9414 35.0156 41.918 34.9453 41.9766 32.836C42.0234 31.1836 42.0703 30.7735 42.293 30.211C42.6211 29.3672 43.2773 28.7461 43.9688 28.6406C44.3086 28.582 44.6133 28.418 44.9414 28.1133C46.0781 27.0586 47.8125 26.8477 49.8047 27.5039ZM31.6406 29.9531C32.5781 30.2227 33.8086 30.9024 34.5 31.5352C35.6016 32.543 35.9766 33.6094 35.9766 35.7656V36.7969H35.4961C34.8047 36.7969 34.3828 36.5508 33.2109 35.4961C32.543 34.8985 31.8516 34.3945 31.3008 34.125L30.4219 33.6914L28.6289 33.6563C26.9414 33.6211 26.8125 33.6328 26.3672 33.8789C25.7344 34.2305 25.5 34.6524 25.1484 35.9766C24.9844 36.5742 24.8086 37.1133 24.7617 37.1602C24.7031 37.2188 24.5273 37.2774 24.375 37.2891C24.082 37.3242 24.082 37.3125 24.0469 36.3867C24.0234 35.8711 24.0703 34.9219 24.1406 34.2891C24.3398 32.3789 24.9258 31.4531 26.1094 31.1953C26.4023 31.125 26.8008 30.9024 27.082 30.6445C28.1484 29.6836 29.7891 29.4375 31.6406 29.9531ZM12.5977 33.0938C12.9258 33.2461 13.6641 33.7969 14.2383 34.3242C15.5156 35.4844 16.2891 35.8945 17.3086 35.9531L18.0469 36V37.0781C18.0469 39.0235 17.4961 40.2774 15.9961 41.7774C14.5078 43.2656 12.8555 43.9805 11.543 43.711C9.70312 43.3242 7.72266 41.6953 6.78516 39.8086C6.31641 38.8594 6.28125 38.6836 6.23438 37.6875L6.1875 36.6094L6.86719 36.457C7.41797 36.3281 7.66406 36.1992 8.03906 35.8125C8.50781 35.3438 8.63672 35.0508 9.08203 33.4805L9.26953 32.8125H10.6406C11.8359 32.8125 12.082 32.8477 12.5977 33.0938ZM48.3398 33.0938C48.668 33.2461 49.3242 33.7266 49.8047 34.1485C51.4102 35.5899 52.1367 35.9766 53.2266 35.9766H53.8125L53.7656 37.3711C53.7188 38.7422 53.707 38.7891 53.2148 39.7969C51.9961 42.2578 49.1836 44.1094 47.2852 43.711C45.457 43.336 43.4766 41.707 42.5391 39.8203C42.082 38.8945 42.0352 38.707 41.9766 37.6992L41.918 36.6094L42.5859 36.457C43.6055 36.2344 44.332 35.4727 44.5781 34.3945C44.625 34.1953 44.7422 33.7617 44.8359 33.4219L45.0117 32.8125H46.3828C47.5781 32.8125 47.8242 32.8477 48.3398 33.0938ZM30.5391 35.6836C30.8555 35.8477 31.582 36.3985 32.1562 36.9024C33.4805 38.086 34.1133 38.4375 35.1328 38.5313L35.918 38.6133L35.8945 39.8438C35.8828 40.7695 35.8125 41.25 35.625 41.7422C34.7109 44.1914 32.1094 46.3125 30 46.3125C27.9023 46.3125 25.2891 44.2031 24.375 41.7656C24.2461 41.4141 24.1055 40.6875 24.0703 40.1367L23.9883 39.1524L24.4453 39.082C25.7461 38.8828 26.4141 38.1797 26.7773 36.6445C27.1055 35.3086 26.9883 35.3906 28.5703 35.3906C29.8125 35.3906 30.0117 35.4258 30.5391 35.6836ZM9.58594 44.8945L10.3242 45.2461L9.71484 45.9375C9.35156 46.3477 9.04688 46.5938 8.96484 46.5469C7.94531 45.9258 6.67969 45.0703 6.67969 45.0117C6.67969 44.9766 7.00781 44.7422 7.41797 44.5078L8.14453 44.086L8.49609 44.3203C8.69531 44.4492 9.17578 44.707 9.58594 44.8945ZM17.3203 44.7891C17.4609 44.8594 17.5781 44.9531 17.5781 45C17.5781 45.0703 16.3008 45.9258 15.2812 46.5469C15.1875 46.6055 14.918 46.3828 14.5312 45.9375L13.9219 45.2344L14.5664 44.9531C14.9297 44.8008 15.4102 44.5313 15.6562 44.3672L16.0898 44.0742L16.5703 44.3672C16.8398 44.5313 17.168 44.7188 17.3203 44.7891ZM45.3281 44.8945L46.0664 45.2461L45.457 45.9375C45.082 46.3711 44.8008 46.6055 44.7188 46.5469C43.7227 45.9375 42.4219 45.0703 42.4219 45.0117C42.4336 44.9766 42.7617 44.7539 43.1602 44.5078L43.8867 44.086L44.2383 44.3203C44.4375 44.4492 44.918 44.707 45.3281 44.8945ZM53.0625 44.7891C53.2031 44.8594 53.3203 44.9649 53.3203 45.0117C53.3203 45.0586 52.8984 45.3633 52.3711 45.6914C51.8438 46.0313 51.3047 46.3711 51.1641 46.4649C50.918 46.6289 50.8711 46.5938 50.2969 45.9375L49.6758 45.2344L50.3203 44.9531C50.6719 44.8008 51.1523 44.5313 51.3984 44.3672L51.832 44.0742L52.3125 44.3672C52.582 44.5313 52.9102 44.7188 53.0625 44.7891ZM12.9492 46.8867C12.9961 47.0039 12.9609 47.3086 12.8906 47.5781L12.7617 48.0586L12.0938 48.0235L11.4258 47.9883L11.3203 47.4258C11.2148 46.875 11.2148 46.8633 11.6602 46.4063L12.1172 45.9375L12.5039 46.3125C12.7148 46.5117 12.9141 46.7813 12.9492 46.8867ZM48.6797 47.4258L48.5742 47.9883H47.8711H47.168L47.0625 47.4258C46.957 46.875 46.957 46.8633 47.4023 46.4063L47.8594 45.9375L48.3281 46.3945C48.7852 46.8516 48.7852 46.8633 48.6797 47.4258ZM6.66797 47.1563C8.80078 48.5274 8.84766 48.5508 9.32812 48.4922C9.63281 48.457 9.73828 48.4922 9.78516 48.6445C9.82031 48.7617 9.46875 49.6641 8.96484 50.7539C8.48438 51.8086 8.08594 52.8047 8.08594 52.9805C8.08594 53.168 8.23828 53.5781 8.4375 53.9063L8.77734 54.4922H5.27344H1.75781V51.7852C1.75781 48.7383 1.81641 48.3867 2.44922 47.6953C2.83594 47.2735 4.59375 46.0781 4.85156 46.0664C4.91016 46.0547 5.73047 46.5469 6.66797 47.1563ZM20.1797 46.5117C21.6094 47.3438 21.5742 47.2383 20.6133 47.8242C19.5 48.4922 18.6914 49.3008 18.3047 50.1211C18.0117 50.7539 17.9883 50.9297 17.9531 52.6524L17.9062 54.4922H16.6875H15.4688L15.8203 53.8711C16.0078 53.5195 16.1719 53.1211 16.1719 52.9805C16.1719 52.8399 15.7734 51.8555 15.2812 50.7891C14.8008 49.7344 14.4141 48.7735 14.4375 48.668C14.4727 48.5039 14.5664 48.4688 14.9062 48.4922C15.4219 48.5391 15.5977 48.457 17.6484 47.1094C18.5508 46.5352 19.3008 46.0547 19.3359 46.0547C19.3711 46.0547 19.7461 46.2656 20.1797 46.5117ZM42.3984 47.1445C44.3672 48.4336 44.5781 48.5391 45.0938 48.4922C45.4219 48.4688 45.5391 48.5039 45.5625 48.6563C45.5859 48.7617 45.1992 49.711 44.7188 50.7774C44.2266 51.832 43.8281 52.8164 43.8281 52.9688C43.8281 53.1211 43.9922 53.5195 44.1797 53.8711L44.5312 54.4922H43.3125H42.0938L42.0469 52.6524C42.0117 50.9297 41.9883 50.7539 41.6953 50.1211C41.3086 49.3008 40.5 48.4922 39.3867 47.8242C38.5781 47.332 38.5547 47.3086 38.7891 47.1445C39.4219 46.6992 40.6172 46.0547 40.7344 46.1016C40.793 46.125 41.543 46.5938 42.3984 47.1445ZM56.25 46.6992C57.4336 47.4375 57.9258 47.9649 58.1133 48.7031C58.1836 48.9844 58.2422 50.332 58.2422 51.8438V54.4922H54.7266H51.2109L51.5625 53.8711C51.75 53.5195 51.9141 53.1211 51.9141 52.9688C51.9141 52.8164 51.5156 51.832 51.0234 50.7774C50.543 49.711 50.1562 48.7617 50.1797 48.6563C50.2031 48.5039 50.3203 48.4688 50.6484 48.4922C51.1641 48.5391 51.3633 48.4453 53.4141 47.1094C54.293 46.5352 55.0547 46.0547 55.1133 46.0547C55.1602 46.0547 55.6641 46.3477 56.25 46.6992ZM26.3672 46.875C26.5547 47.0039 27.0586 47.2735 27.4805 47.4844L28.2656 47.8477L27.6445 48.4688C27.3047 48.8203 26.9648 49.1016 26.8945 49.1016C26.8359 49.1016 26.2617 48.7617 25.6289 48.3399L24.4805 47.5899L24.9844 47.2735C25.2656 47.1094 25.5938 46.8985 25.7227 46.8047C26.0273 46.6055 25.9805 46.6055 26.3672 46.875ZM34.2539 46.8047C34.3945 46.8985 34.7344 47.1094 35.0156 47.2735L35.5195 47.5899L34.3711 48.3399C33.7383 48.7617 33.1641 49.1016 33.1055 49.1016C33.0352 49.1016 32.707 48.8203 32.3555 48.4688L31.7461 47.8477L32.6016 47.4375C33.0703 47.2031 33.5625 46.9336 33.6914 46.8281C33.9844 46.6055 33.9375 46.6055 34.2539 46.8047ZM30.5039 49.043C30.9375 49.5469 30.9375 49.5469 30.7969 50.086L30.6562 50.625H29.9883H29.3203L29.1914 50.086C29.0508 49.5469 29.0625 49.5469 29.4961 49.043C29.7422 48.7617 29.9648 48.5391 30 48.5391C30.0352 48.5391 30.2578 48.7617 30.5039 49.043ZM38.2852 49.2188C38.8125 49.5469 39.4102 49.9805 39.6211 50.1797C40.2773 50.8477 40.3125 51.0352 40.3125 54.1992V57.0703H36.8555C34.957 57.0703 33.3984 57.0469 33.3984 57.0117C33.3984 56.9766 33.5625 56.6719 33.75 56.332C33.9492 55.9805 34.1016 55.6289 34.1016 55.5352C34.1016 55.4414 33.6797 54.4805 33.1758 53.3789C32.6719 52.2891 32.2852 51.3164 32.3086 51.211C32.3438 51.082 32.5078 51.0352 32.9062 51.0352C33.4102 51.0352 33.6211 50.9297 35.2734 49.8399C36.2695 49.1836 37.1484 48.6445 37.207 48.6445C37.2773 48.6328 37.7578 48.9024 38.2852 49.2188ZM13.3711 50.8242C13.6289 51.3985 13.9453 52.1016 14.0742 52.4063L14.3203 52.9453L13.875 53.7188L13.4297 54.4922H12.1172H10.8047L10.3711 53.7305C10.0898 53.2149 9.97266 52.8867 10.0195 52.7227C10.0664 52.5938 10.3828 51.8789 10.7227 51.1406L11.3555 49.8047H12.1289H12.8906L13.3711 50.8242ZM49.2773 51.1406C50.1445 53.0039 50.1211 52.8633 49.6172 53.7305L49.1719 54.4922H47.8711H46.5703L46.125 53.7305C45.6094 52.8516 45.5742 53.0742 46.5703 50.9414L47.0977 49.8047H47.8711H48.6445L49.2773 51.1406ZM31.4648 53.8711C31.8398 54.6914 32.1445 55.418 32.1445 55.5C32.1445 55.5703 31.957 55.957 31.7109 56.3438L31.2773 57.0703H30.0117C28.6055 57.0703 28.7109 57.1172 28.1484 56.1328L27.7852 55.4766L28.5 53.9297L29.2148 52.3828H30H30.7852L31.4648 53.8711Z" fill="#706F6F"/>
</svg>
