<svg width="18" height="18" viewBox="0 0 18 18" fill="none" xmlns="http://www.w3.org/2000/svg">
<path d="M4.21875 6.89062C4.21875 9.52031 6.37031 11.6719 9 11.6719C11.6297 11.6719 13.7812 9.52031 13.7812 6.89062C13.7812 4.26094 11.6297 2.10938 9 2.10938C6.37031 2.10938 4.21875 4.26094 4.21875 6.89062ZM12.6562 6.89062C12.6562 8.90156 11.0109 10.5469 9 10.5469C6.98906 10.5469 5.34375 8.90156 5.34375 6.89062C5.34375 4.87969 6.98906 3.23438 9 3.23438C11.0109 3.23438 12.6562 4.87969 12.6562 6.89062Z" fill="#000"/>
<path d="M3.4312 16.7906C4.92183 15.3 6.89058 14.4844 8.99995 14.4844C11.1093 14.4844 13.0781 15.3 14.5687 16.7906L15.3703 15.9891C13.6687 14.3016 11.4046 13.3594 8.99995 13.3594C6.59526 13.3594 4.3312 14.3016 2.62964 15.9891L3.4312 16.7906Z" fill="#000"/>
</svg>
