<svg width="18" height="18" viewBox="0 0 18 18" fill="none" xmlns="http://www.w3.org/2000/svg">
<path d="M8.48321 0.711552C7.59728 0.859207 6.80978 1.27757 6.21423 1.93218C5.52517 2.6803 5.21509 3.54655 5.21017 4.70319V5.21014H3.64993C2.18321 5.21014 2.07493 5.21507 1.92728 5.30858C1.83868 5.36272 1.75501 5.45624 1.74024 5.5153C1.72548 5.57929 1.72056 7.71046 1.72548 10.2551L1.74024 14.8816L1.87806 15.2212C2.14876 15.9005 2.6311 16.432 3.26603 16.7519C3.91079 17.0768 3.79267 17.0719 9.00001 17.0719C14.2024 17.0719 14.0843 17.0768 14.734 16.7519C15.3591 16.4419 15.8513 15.9005 16.122 15.2212L16.2598 14.8816L16.2745 10.2551C16.2795 7.71046 16.2745 5.57929 16.2598 5.5153C16.245 5.45624 16.1613 5.36272 16.0727 5.30858C15.9251 5.21507 15.8168 5.21014 14.355 5.21014H12.7899V4.73765C12.7899 4.15686 12.7209 3.68436 12.5634 3.22663C12.1697 2.06999 11.1607 1.13483 9.95977 0.80999C9.65954 0.726316 8.75392 0.672176 8.48321 0.711552ZM9.71368 1.78944C10.4372 1.9814 11.1558 2.57202 11.4757 3.24139C11.6972 3.71882 11.7563 4.00921 11.7563 4.66874V5.21014H9.00001H6.24376V4.66874C6.24376 4.00921 6.30282 3.71882 6.52431 3.24139C6.83931 2.58186 7.5579 1.98632 8.26665 1.79436C8.62103 1.69593 9.34946 1.69593 9.71368 1.78944ZM5.21017 6.90819C5.21017 7.79905 5.29384 7.9664 5.73681 7.9664C5.94845 7.9664 6.12071 7.84335 6.19946 7.63663C6.22407 7.57265 6.24376 7.22811 6.24376 6.87866V6.24374H9.00001H11.7563V6.87866C11.7563 7.22319 11.7809 7.57757 11.8104 7.66124C11.8744 7.85319 12.0466 7.9664 12.2731 7.9664C12.7013 7.9664 12.7899 7.78921 12.7899 6.90819V6.24374H14.0449H15.3V10.3486C15.3 14.3205 15.2951 14.4633 15.2016 14.7635C15.0244 15.3246 14.6356 15.7331 14.0892 15.9398C13.8234 16.0383 13.725 16.0383 9.00001 16.0383C4.24548 16.0383 4.17657 16.0383 3.90587 15.9349C3.36446 15.7331 2.94118 15.2754 2.77876 14.7143C2.70985 14.478 2.70001 13.9465 2.70001 10.3437V6.24374H3.95509H5.21017V6.90819Z" fill="#000"/>
</svg>
