<svg width="21" height="20" viewBox="0 0 21 20" fill="none" xmlns="http://www.w3.org/2000/svg">
<path d="M15.9218 0H5.07799C3.80179 0 2.76465 1.03714 2.76465 2.31334V17.6867C2.76465 18.9629 3.80179 20 5.07799 20H15.9218C17.1976 20 18.2351 18.9629 18.2351 17.6867V2.31334C18.2351 1.03756 17.1976 0 15.9218 0ZM17.464 17.6867C17.464 18.5372 16.7715 19.2289 15.9218 19.2289H5.07799C4.22743 19.2289 3.53578 18.5372 3.53578 17.6867V2.31334C3.53578 1.46278 4.22749 0.771134 5.07799 0.771134H15.9218C16.7716 0.771134 17.464 1.46284 17.464 2.31334V17.6867ZM4.74066 6.40988H16.2591V2.31334H4.74066V6.40988ZM5.51173 3.08448H15.488V5.63881H5.51173V3.08448ZM7.27219 8.49346V9.42765C7.27219 9.76228 7.00037 10.0334 6.66609 10.0334H5.7319C5.39727 10.0334 5.12659 9.76234 5.12659 9.42765V8.49346C5.12659 8.15918 5.39727 7.88814 5.7319 7.88814H6.66609C7.00037 7.88772 7.27219 8.15918 7.27219 8.49346ZM11.5731 8.49346V9.42765C11.5731 9.76192 11.3013 10.0334 10.967 10.0334H10.0332C9.69856 10.0334 9.42746 9.76198 9.42746 9.42765V8.49346C9.42746 8.15882 9.6985 7.88814 10.0332 7.88814H10.967C11.3013 7.88772 11.5731 8.15876 11.5731 8.49346ZM15.8736 8.49346V9.42765C15.8736 9.76192 15.6018 10.0334 15.2675 10.0334H14.3337C13.9994 10.0334 13.7276 9.76198 13.7276 9.42765V8.49346C13.7276 8.15882 13.9994 7.88814 14.3337 7.88814H15.2675C15.6018 7.88772 15.8736 8.15876 15.8736 8.49346ZM7.27219 12.2723V13.2065C7.27219 13.5407 7.00037 13.8118 6.66609 13.8118H5.7319C5.39727 13.8118 5.12659 13.5407 5.12659 13.2065V12.2723C5.12659 11.938 5.39727 11.667 5.7319 11.667H6.66609C7.00037 11.6666 7.27219 11.9376 7.27219 12.2723ZM7.27219 16.0507V16.9846C7.27219 17.3192 7.00037 17.5903 6.66609 17.5903H5.7319C5.39727 17.5903 5.12659 17.3193 5.12659 16.9846V16.0507C5.12659 15.7157 5.39727 15.445 5.7319 15.445H6.66609C7.00037 15.4451 7.27219 15.7157 7.27219 16.0507ZM11.5731 12.2719V13.2069C11.5731 13.5408 11.3013 13.8118 10.967 13.8118H10.0332C9.69856 13.8118 9.42746 13.5408 9.42746 13.2069V12.2719C9.42746 11.9376 9.6985 11.6666 10.0332 11.6666H10.967C11.3013 11.6662 11.5731 11.9372 11.5731 12.2719ZM11.5731 16.0504V16.9846C11.5731 17.3188 11.3013 17.5903 10.967 17.5903H10.0332C9.69856 17.5903 9.42746 17.3188 9.42746 16.9846V16.0504C9.42746 15.7157 9.6985 15.4446 10.0332 15.4446H10.967C11.3013 15.4446 11.5731 15.7157 11.5731 16.0504ZM15.8736 12.2719V13.2069C15.8736 13.208 15.8725 13.2092 15.8725 13.2107V16.0465C15.8725 16.0476 15.8736 16.0495 15.8736 16.0507V16.9849C15.8736 17.3192 15.6018 17.5907 15.2675 17.5907H14.3337C13.9986 17.5907 13.7276 17.3193 13.7276 16.9849V16.5474V16.0507V13.2069V12.5302V12.2719C13.7276 11.9376 13.9986 11.6666 14.3337 11.6666H15.2675C15.6018 11.6662 15.8736 11.9372 15.8736 12.2719Z" fill="white"/>
</svg>
