<svg width="18" height="14" viewBox="0 0 18 14" fill="none" xmlns="http://www.w3.org/2000/svg">
<path d="M18 11.4999C18 11.8945 17.889 12.2604 17.7112 12.5822L12.0279 6.22336L17.6496 1.30486C17.8683 1.65191 18 2.05957 18 2.5001V11.4999ZM9.00002 7.37794L16.8225 0.533497C16.5015 0.357767 16.14 0.25 15.7501 0.25H2.24999C1.85957 0.25 1.49799 0.357767 1.17828 0.533497L9.00002 7.37794ZM11.1809 6.96386L9.37018 8.54918C9.26426 8.64144 9.13238 8.68751 9.00002 8.68751C8.86758 8.68751 8.7357 8.64144 8.62979 8.54918L6.8187 6.96379L1.06347 13.4039C1.40843 13.6203 1.81272 13.75 2.24995 13.75H15.7501C16.1872 13.75 16.5917 13.6203 16.9365 13.4039L11.1809 6.96386ZM0.350495 1.30482C0.131844 1.65187 0 2.05953 0 2.5001V11.5C0 11.8946 0.110476 12.2604 0.288951 12.5822L5.97162 6.22229L0.350495 1.30482Z" fill="#000"/>
</svg>
