<svg width="18" height="18" viewBox="0 0 18 18" fill="none" xmlns="http://www.w3.org/2000/svg">
<path d="M17.919 14.3469L17.8294 14.077C17.6172 13.4463 16.9217 12.7885 16.2828 12.6152L13.918 11.9692C13.2767 11.7947 12.3619 12.0293 11.8927 12.4985L11.0368 13.3544C7.92636 12.5139 5.48731 10.0748 4.64796 6.96494L5.50387 6.10904C5.97308 5.63983 6.20764 4.72624 6.03317 4.08494L5.38833 1.71896C5.21386 1.07883 4.55486 0.383323 3.92537 0.173467L3.65542 0.0827045C3.02472 -0.127151 2.12524 0.085081 1.65608 0.554248L0.375815 1.83568C0.147097 2.06319 0.000918643 2.71392 0.000918643 2.7163C-0.0438592 6.781 1.54996 10.6972 4.42517 13.5724C7.29333 16.4406 11.1948 18.032 15.2477 17.9979C15.2689 17.9979 15.9385 17.854 16.1672 17.6265L17.4475 16.3462C17.9166 15.8771 18.1288 14.9776 17.919 14.3469Z" fill="#000"/>
</svg>
