<svg width="18" height="18" viewBox="0 0 18 18" fill="none" xmlns="http://www.w3.org/2000/svg">
<g clip-path="url(#clip0_266_2083)">
<path d="M17.3418 5.43244L16.5463 6.22835L11.7726 1.45539L12.5682 0.659413C13.4469 -0.219479 14.872 -0.219479 15.7509 0.659413L17.3418 2.25074C18.2194 3.12915 18.2194 4.55363 17.3418 5.43244ZM6.20378 14.9778C5.9841 15.1974 5.9841 15.5532 6.20378 15.773C6.42358 15.9939 6.77956 15.9939 6.99925 15.773L15.7509 7.02378L14.9544 6.22779L6.20378 14.9778ZM2.2258 11.0007C2.006 11.2206 2.006 11.5762 2.2258 11.7961C2.44549 12.0158 2.80146 12.0158 3.02126 11.7961L11.7726 3.04621L10.9774 2.25074L2.2258 11.0007ZM12.5671 3.84108L3.81654 12.5915C3.37713 13.03 3.37824 13.743 3.81654 14.1824C4.25614 14.6218 4.96795 14.6239 5.40851 14.1812L14.1591 5.43244L12.5671 3.84108ZM5.40624 16.5664C5.13718 16.297 5.00749 15.9556 4.95923 15.6038C4.84486 15.6215 4.72967 15.6379 4.612 15.6379C4.01096 15.6379 3.44646 15.403 3.02126 14.9778C2.59606 14.5515 2.36206 13.9878 2.36206 13.3868C2.36206 13.2772 2.37849 13.1704 2.39392 13.064C2.03026 13.0144 1.69413 12.8551 1.43045 12.5915C1.40515 12.5663 1.39643 12.5322 1.37339 12.5047L0 17.9999L5.48096 16.6279C5.45681 16.6059 5.42947 16.5894 5.40624 16.5664Z" fill="#303030"/>
</g>
<defs>
<clipPath id="clip0_266_2083">
<rect width="18" height="18" fill="white"/>
</clipPath>
</defs>
</svg>
