<svg width="16" height="16" viewBox="0 0 16 16" fill="none" xmlns="http://www.w3.org/2000/svg">
<g opacity="0.4">
<path d="M11.1994 16H4.71938C3.39938 16 2.35938 14.92 2.35938 13.64V6.4C2.35938 6.16 2.51937 6 2.75938 6C2.99938 6 3.15938 6.16 3.15938 6.4V13.64C3.15938 14.52 3.87938 15.2 4.71938 15.2H11.1994C12.0794 15.2 12.7594 14.48 12.7594 13.64V6.4C12.7594 6.16 12.9194 6 13.1594 6C13.3994 6 13.5594 6.16 13.5594 6.4V13.64C13.5594 14.92 12.4794 16 11.1994 16Z" fill="#F40000"/>
<path d="M13.3209 1.96H10.2809C10.0809 0.84 9.12094 0 7.96094 0C6.80094 0 5.84094 0.84 5.64094 1.96H2.60094C1.68094 1.96 0.960938 2.68 0.960938 3.6C0.960938 4.52 1.68094 5.2 2.60094 5.2H13.3609C14.2809 5.2 15.0009 4.48 15.0009 3.56C15.0009 2.64 14.2409 1.96 13.3209 1.96ZM7.96094 0.8C8.68094 0.8 9.28094 1.28 9.44094 1.96H6.44094C6.64094 1.28 7.24094 0.8 7.96094 0.8ZM13.3209 4.4H2.60094C2.16094 4.4 1.76094 4.04 1.76094 3.56C1.76094 3.12 2.12094 2.72 2.60094 2.72H13.3609C13.8009 2.72 14.2009 3.08 14.2009 3.56C14.1609 4.04 13.8009 4.4 13.3209 4.4Z" fill="#F40000"/>
<path d="M5.15977 14.04C4.91977 14.04 4.75977 13.88 4.75977 13.64V6.96C4.75977 6.72 4.91977 6.56 5.15977 6.56C5.39977 6.56 5.55977 6.72 5.55977 6.96V13.64C5.55977 13.84 5.35977 14.04 5.15977 14.04Z" fill="#F40000"/>
<path d="M10.7594 14.04C10.5194 14.04 10.3594 13.88 10.3594 13.64V6.96C10.3594 6.72 10.5194 6.56 10.7594 6.56C10.9994 6.56 11.1594 6.72 11.1594 6.96V13.64C11.1594 13.84 10.9594 14.04 10.7594 14.04Z" fill="#F40000"/>
<path d="M7.96055 14.04C7.72055 14.04 7.56055 13.88 7.56055 13.64V6.96C7.56055 6.72 7.72055 6.56 7.96055 6.56C8.20055 6.56 8.36055 6.72 8.36055 6.96V13.64C8.36055 13.84 8.16055 14.04 7.96055 14.04Z" fill="#F40000"/>
</g>
</svg>
