<svg width="27" height="27" viewBox="0 0 27 27" fill="none" xmlns="http://www.w3.org/2000/svg">
<path fill-rule="evenodd" clip-rule="evenodd" d="M13.5 0C6.04416 0 0 6.04416 0 13.5C0 20.9558 6.04416 27 13.5 27C20.9558 27 27 20.9558 27 13.5C27 6.04416 20.9558 0 13.5 0ZM13.8622 6.075C15.739 6.075 17.5171 6.81328 18.8506 8.14219C20.1841 9.47109 20.8756 11.243 20.925 13.0641C20.925 16.9523 17.764 20.1023 13.8622 20.1023C12.6768 20.1023 11.5409 19.807 10.5037 19.2656L6.75 20.25L7.7378 16.6078C7.14512 15.5742 6.79939 14.3438 6.79939 13.1133C6.79939 9.225 9.96036 6.075 13.8622 6.075ZM16.0848 16.4602C16.4305 16.4109 17.122 16.0172 17.2701 15.6234C17.4183 15.2297 17.4183 14.8852 17.3689 14.7375C17.3195 14.6883 17.2207 14.6391 17.0232 14.5406C16.875 14.4422 15.986 13.9992 15.8378 13.95C15.6896 13.9008 15.5415 13.8516 15.4427 14.0484C15.3439 14.2453 14.9982 14.6391 14.8994 14.7375C14.8006 14.8359 14.7018 14.8852 14.5043 14.7867C14.4743 14.7718 14.4364 14.7546 14.3913 14.7341C14.1386 14.6195 13.6586 14.4019 13.0719 13.9008C12.5287 13.4086 12.1829 12.8672 12.0841 12.6703C11.9854 12.5227 12.0841 12.4242 12.1829 12.3258C12.2034 12.3054 12.2323 12.2681 12.2662 12.2244C12.3141 12.1627 12.372 12.0881 12.4299 12.0305C12.5287 11.932 12.578 11.8336 12.6274 11.7352C12.6768 11.6367 12.6768 11.5383 12.6274 11.4398C12.5949 11.4074 12.4334 11.0111 12.2848 10.6461C12.208 10.4576 12.1346 10.2775 12.0841 10.1602C11.9517 9.85218 11.8192 9.85883 11.7221 9.86371C11.7105 9.86429 11.6995 9.86484 11.689 9.86484H11.3433C11.1951 9.86484 10.9976 9.86484 10.8494 10.0617C10.8298 10.0878 10.805 10.1173 10.7767 10.1509C10.5914 10.3714 10.2567 10.7696 10.2567 11.5383C10.2567 12.4242 10.8988 13.2609 10.9976 13.3594C11.0003 13.3635 11.0038 13.3688 11.0082 13.3754C11.1599 13.6046 12.2816 15.2994 14.0104 16.0172C14.2859 16.1545 14.5373 16.2439 14.7481 16.3188C14.8396 16.3513 14.9234 16.3811 14.9982 16.4109C15.3933 16.5094 15.7884 16.5094 16.0848 16.4602Z" fill="#25D366"/>
</svg>
