<svg width="27" height="24" viewBox="0 0 27 24" fill="none" xmlns="http://www.w3.org/2000/svg">
<path d="M8.12152 0.565063L14.6822 0.565891L9.35972 6.10264L8.12152 0.565063Z" fill="url(#paint0_linear_3815_4284)"/>
<path d="M6.56155 17.7237L0 17.7229L9.3597 6.10098L6.56155 17.7237Z" fill="url(#paint1_linear_3815_4284)"/>
<path d="M8.12155 0.565063L4.10175 9.10427L9.35975 6.10347L8.12155 0.565063Z" fill="url(#paint2_linear_3815_4284)"/>
<path d="M10.6004 9.12742L14.6193 0.58905L9.29681 6.11588L10.6004 9.12742Z" fill="url(#paint3_linear_3815_4284)"/>
<path d="M4.1026 9.10345L0.0447388 17.7245L9.3573 6.10431L4.1026 9.10345Z" fill="url(#paint4_linear_3815_4284)"/>
<path d="M10.6072 9.12661L6.56091 17.7245L9.31275 6.10349L10.6072 9.12661Z" fill="url(#paint5_linear_3815_4284)"/>
<path d="M2.09039 23.3944L6.97372 17.8064L11.1904 20.1207L2.09039 23.3944Z" fill="url(#paint6_linear_3815_4284)"/>
<path d="M26.2714 17.847L21.3881 23.435L11.1888 20.1207L26.2714 17.847Z" fill="url(#paint7_linear_3815_4284)"/>
<path d="M2.09045 23.3944L11.7107 23.3952L11.1913 20.1198L2.09045 23.3944Z" fill="url(#paint8_linear_3815_4284)"/>
<path d="M16.581 17.8519L6.96161 17.8511L11.1642 20.1687L16.581 17.8519Z" fill="url(#paint9_linear_3815_4284)"/>
<path d="M11.7096 23.3953L21.4225 23.3961L11.191 20.1215L11.7096 23.3953Z" fill="url(#paint10_linear_3815_4284)"/>
<path d="M16.5849 17.8461L26.2722 17.847L11.1573 20.1604L16.5849 17.8461Z" fill="url(#paint11_linear_3815_4284)"/>
<defs>
<linearGradient id="paint0_linear_3815_4284" x1="10.8069" y1="3.56359" x2="10.2506" y2="0.577688" gradientUnits="userSpaceOnUse">
<stop stop-color="#706F6F"/>
<stop offset="0.9625" stop-color="white"/>
</linearGradient>
<linearGradient id="paint1_linear_3815_4284" x1="2.36714" y1="11.9111" x2="7.99661" y2="14.2015" gradientUnits="userSpaceOnUse">
<stop offset="0.3113" stop-color="#706F6F"/>
<stop offset="0.9625" stop-color="white"/>
</linearGradient>
<linearGradient id="paint2_linear_3815_4284" x1="5.8413" y1="4.83388" x2="9.30499" y2="6.24308" gradientUnits="userSpaceOnUse">
<stop stop-color="#706F6F"/>
<stop offset="0.9625" stop-color="white"/>
</linearGradient>
<linearGradient id="paint3_linear_3815_4284" x1="9.81055" y1="4.85734" x2="12.4477" y2="5.93026" gradientUnits="userSpaceOnUse">
<stop stop-color="#706F6F"/>
<stop offset="0.9625" stop-color="white"/>
</linearGradient>
<linearGradient id="paint4_linear_3815_4284" x1="2.41109" y1="11.9134" x2="6.34491" y2="13.5139" gradientUnits="userSpaceOnUse">
<stop stop-color="#706F6F"/>
<stop offset="0.9625" stop-color="white"/>
</linearGradient>
<linearGradient id="paint5_linear_3815_4284" x1="9.47364" y1="11.9137" x2="7.30741" y2="11.0324" gradientUnits="userSpaceOnUse">
<stop stop-color="#706F6F"/>
<stop offset="0.9625" stop-color="white"/>
</linearGradient>
<linearGradient id="paint6_linear_3815_4284" x1="8.49081" y1="19.9145" x2="5.63457" y2="18.2355" gradientUnits="userSpaceOnUse">
<stop offset="0.3113" stop-color="#706F6F"/>
<stop offset="0.9625" stop-color="white"/>
</linearGradient>
<linearGradient id="paint7_linear_3815_4284" x1="15.1899" y1="23.4355" x2="15.1906" y2="17.8476" gradientUnits="userSpaceOnUse">
<stop offset="0.3113" stop-color="#706F6F"/>
<stop offset="0.9625" stop-color="white"/>
</linearGradient>
<linearGradient id="paint8_linear_3815_4284" x1="6.90148" y1="23.3964" x2="6.90193" y2="20.1213" gradientUnits="userSpaceOnUse">
<stop stop-color="#706F6F"/>
<stop offset="0.9625" stop-color="white"/>
</linearGradient>
<linearGradient id="paint9_linear_3815_4284" x1="9.92855" y1="20.1705" x2="9.92887" y2="17.8531" gradientUnits="userSpaceOnUse">
<stop offset="0.3113" stop-color="#706F6F"/>
<stop offset="0.9625" stop-color="white"/>
</linearGradient>
<linearGradient id="paint10_linear_3815_4284" x1="15.0053" y1="23.3974" x2="15.0058" y2="20.124" gradientUnits="userSpaceOnUse">
<stop offset="0.3113" stop-color="#706F6F"/>
<stop offset="0.9625" stop-color="white"/>
</linearGradient>
<linearGradient id="paint11_linear_3815_4284" x1="19.6348" y1="17.846" x2="19.6345" y2="20.1612" gradientUnits="userSpaceOnUse">
<stop offset="0.3113" stop-color="#706F6F"/>
<stop offset="0.9625" stop-color="white"/>
</linearGradient>
</defs>
</svg>
