<svg width="109" height="36" viewBox="0 0 109 36" fill="none" xmlns="http://www.w3.org/2000/svg">
<path d="M6.36542 7.68199H10.2316L6.95309 23.8444H3.08691L6.36542 7.68199ZM6.86045 2.89957C6.86045 1.53751 7.91131 0.477966 9.48904 0.477966C10.8815 0.477966 11.8093 1.38552 11.8093 2.50586C11.8093 3.98951 10.757 5.01866 9.18074 5.01866C7.78828 5.01866 6.86045 4.0503 6.86045 2.89957Z" fill="white"/>
<path d="M32.8392 17.1861C32.8392 21.666 28.9108 23.8444 23.2512 23.8444H12.3953L16.7246 2.65787H26.715C31.1993 2.65787 33.7671 4.32245 33.7671 7.40989C33.7671 10.134 32.1285 12.0099 29.9009 12.8885C31.7261 13.5529 32.8392 15.0062 32.8392 17.1861ZM28.8196 17.1861C28.8196 15.3102 27.3968 14.6443 24.9231 14.6443H18.2734L17.0358 20.7584H23.5306C26.8699 20.757 28.8196 19.5454 28.8196 17.1861ZM20.0972 5.74531L18.8915 11.5873H24.6133C27.6139 11.5873 29.5622 10.4076 29.5622 8.07572C29.5622 6.47193 28.2016 5.74531 25.8205 5.74531H20.0972Z" fill="white"/>
<path d="M65.222 12.8871C65.222 13.4921 65.1598 14.158 65.0049 14.8846L63.1796 23.843H59.3135L61.1387 14.9743C61.2314 14.5198 61.2632 14.0972 61.2632 13.7035C61.2632 11.8276 60.2427 10.7984 58.1092 10.7984C55.4487 10.7984 53.6857 12.2821 53.0373 15.4288L51.3046 23.843H47.4385L49.2637 14.9743C49.3564 14.5198 49.3882 14.0972 49.3882 13.7035C49.3882 11.8276 48.3677 10.7984 46.2342 10.7984C43.5737 10.7984 41.8107 12.2821 41.1623 15.4592L39.4297 23.843H35.5635L38.842 7.68057H42.5229L42.1827 9.43634C43.636 8.10467 45.5235 7.49963 47.5948 7.49963C49.9759 7.49963 51.8315 8.4072 52.729 10.163C54.3993 8.4072 56.5951 7.49963 59.2541 7.49963C62.9017 7.49963 65.222 9.377 65.222 12.8871Z" fill="white"/>
<path d="M83.7487 18.9404H72.8623L69.7387 23.8429H65.4397L79.512 2.6564H83.5012L88.8828 23.8429H84.8936L83.7487 18.9404ZM83.0076 15.8529L80.8118 6.53126L74.8424 15.8529H83.0076Z" fill="white"/>
<path d="M100.295 15.7328L104.997 23.8444H100.915L97.7609 18.2456L92.3489 23.8444H87.895L96.1832 15.4911L91.699 7.68201H95.72L98.6888 12.9783L103.885 7.68201H108.215L100.295 15.7328Z" fill="white"/>
<path d="M-0.000244141 35.4765L1.27557 29.0974H1.74033L0.619438 34.6927L6.07811 29.0974H6.49731L5.22149 35.4765H4.75673L5.87762 29.8902L0.418953 35.4765H-0.000244141Z" fill="white"/>
<path d="M9.52459 35.4765L10.8004 29.0974H11.2652L10.1443 34.6927L15.6029 29.0974H16.0221L14.7463 35.4765H14.2816L15.4025 29.8902L9.94379 35.4765H9.52459Z" fill="white"/>
<path d="M23.2217 35.4765L24.1785 30.7195H26.1652C26.6512 30.7195 27.0188 30.8076 27.2678 30.9838C27.523 31.1599 27.6506 31.4181 27.6506 31.7584C27.6506 32.1654 27.4805 32.4935 27.1403 32.7426C26.8061 32.9917 26.3687 33.1162 25.828 33.1162L25.9465 32.9795C26.4446 32.9795 26.8061 33.0615 27.0309 33.2256C27.2557 33.3835 27.3681 33.6387 27.3681 33.991C27.3681 34.4528 27.1858 34.8173 26.8213 35.0846C26.4568 35.3458 25.9495 35.4765 25.2994 35.4765H23.2217ZM23.7411 35.1028H25.3359C25.8341 35.1028 26.2229 35.0056 26.5023 34.8112C26.7818 34.6107 26.9215 34.3343 26.9215 33.9819C26.9215 33.7146 26.8335 33.5263 26.6573 33.4169C26.4872 33.3015 26.2047 33.2438 25.8098 33.2438H24.1147L23.7411 35.1028ZM24.1877 32.8884H25.7186C26.1561 32.8884 26.5084 32.7912 26.7757 32.5968C27.0491 32.4023 27.1858 32.1441 27.1858 31.8222C27.1858 31.5731 27.0947 31.3908 26.9124 31.2754C26.7302 31.1539 26.4568 31.0931 26.0923 31.0931H24.5431L24.1877 32.8884Z" fill="white"/>
<path d="M37.1955 35.5129C36.7581 35.5129 36.3784 35.4339 36.0564 35.276C35.7344 35.1119 35.4853 34.8811 35.3091 34.5834C35.139 34.2857 35.054 33.9364 35.054 33.5354C35.054 32.9825 35.1694 32.4935 35.4002 32.0682C35.6372 31.6369 35.9622 31.2997 36.3753 31.0567C36.7885 30.8076 37.2593 30.683 37.7878 30.683C38.2131 30.683 38.5776 30.759 38.8814 30.9109C39.1912 31.0567 39.4282 31.2784 39.5922 31.5761L39.2186 31.8039C39.0728 31.5609 38.8784 31.3817 38.6353 31.2663C38.3923 31.1508 38.1007 31.0931 37.7605 31.0931C37.3231 31.0931 36.9343 31.1994 36.594 31.4121C36.2599 31.6186 35.9956 31.9042 35.8012 32.2687C35.6068 32.6332 35.5096 33.0463 35.5096 33.5081C35.5096 34.0123 35.6584 34.4042 35.9561 34.6836C36.2538 34.9631 36.6791 35.1028 37.232 35.1028C37.5479 35.1028 37.8425 35.0451 38.1159 34.9297C38.3954 34.8082 38.6262 34.635 38.8085 34.4102L39.1275 34.6654C38.9209 34.9327 38.6445 35.1423 38.2982 35.2942C37.958 35.44 37.5904 35.5129 37.1955 35.5129Z" fill="white"/>
<path d="M42.2472 35.4765L43.1949 30.7195H43.6505L43.2131 32.8884H46.4482L46.8857 30.7195H47.3413L46.3844 35.4765H45.9288L46.3753 33.2893H43.1402L42.7028 35.4765H42.2472Z" fill="white"/>
<path d="M52.3985 35.5129C51.9915 35.5129 51.633 35.4339 51.3232 35.276C51.0133 35.118 50.7734 34.8902 50.6032 34.5925C50.4331 34.2948 50.3481 33.9424 50.3481 33.5354C50.3481 33.1223 50.4119 32.7426 50.5395 32.3963C50.6731 32.05 50.8615 31.7493 51.1045 31.4941C51.3475 31.2389 51.633 31.0415 51.9611 30.9017C52.2892 30.7559 52.6476 30.683 53.0364 30.683C53.4556 30.683 53.811 30.759 54.1026 30.9109C54.3942 31.0567 54.616 31.2723 54.7679 31.5579C54.9258 31.8373 55.0048 32.1776 55.0048 32.5785C55.0109 33.1435 54.9046 33.6478 54.6859 34.0913C54.4732 34.5348 54.1695 34.8841 53.7746 35.1393C53.3857 35.3884 52.9271 35.5129 52.3985 35.5129ZM52.4896 35.1028C52.921 35.1028 53.3037 34.9995 53.6379 34.793C53.972 34.5864 54.2363 34.3009 54.4307 33.9364C54.6251 33.5658 54.7223 33.1496 54.7223 32.6879C54.7223 32.1776 54.5735 31.7857 54.2758 31.5123C53.9842 31.2329 53.571 31.0931 53.0364 31.0931C52.6111 31.0931 52.2284 31.1994 51.8882 31.4121C51.554 31.6186 51.2898 31.9042 51.0953 32.2687C50.9009 32.6332 50.8037 33.0463 50.8037 33.5081C50.8037 34.0123 50.9495 34.4042 51.2412 34.6836C51.5388 34.9631 51.955 35.1028 52.4896 35.1028ZM54.2211 35.4765L54.5127 33.991L54.777 33.1618L54.8408 32.2869L55.1506 30.7195H55.6063L54.6585 35.4765H54.2211Z" fill="white"/>
<path d="M60.9326 35.522C60.2704 35.522 59.7509 35.3215 59.3743 34.9206C58.9976 34.5196 58.8093 33.9485 58.8093 33.2073C58.8093 32.7031 58.8822 32.2231 59.028 31.7675C59.1799 31.3058 59.3955 30.8866 59.675 30.5099C59.9545 30.1271 60.2856 29.8082 60.6683 29.553C61.0511 29.2918 61.4703 29.1126 61.9259 29.0154L64.1039 28.5506L64.1221 28.9516L62.0261 29.4072C61.534 29.5105 61.0936 29.7171 60.7048 30.0269C60.322 30.3307 60.0061 30.7104 59.757 31.166C59.5079 31.6156 59.3439 32.1168 59.2649 32.6697L59.1191 32.615C59.3925 32.0621 59.757 31.6399 60.2127 31.3483C60.6683 31.0567 61.1786 30.9109 61.7436 30.9109C62.3451 30.9109 62.8159 31.0779 63.1562 31.4121C63.5024 31.7462 63.6756 32.211 63.6756 32.8064C63.6756 33.3228 63.5541 33.7875 63.3111 34.2006C63.0741 34.6077 62.7491 34.9297 62.336 35.1666C61.9229 35.4036 61.4551 35.522 60.9326 35.522ZM60.969 35.1393C61.3882 35.1393 61.7649 35.039 62.0991 34.8386C62.4332 34.6381 62.6975 34.3677 62.8919 34.0275C63.0924 33.6812 63.1926 33.2924 63.1926 32.861C63.1926 32.375 63.0529 31.9983 62.7734 31.731C62.5 31.4576 62.1173 31.3209 61.6252 31.3209C61.3214 31.3209 61.0268 31.3787 60.7412 31.4941C60.4618 31.6034 60.2096 31.7553 59.9848 31.9497C59.7601 32.1381 59.5808 32.3568 59.4472 32.6059C59.3196 32.855 59.2558 33.1162 59.2558 33.3896C59.2558 33.9242 59.4107 34.3495 59.7206 34.6654C60.0304 34.9813 60.4466 35.1393 60.969 35.1393Z" fill="white"/>
<path d="M72.1464 35.4765L70.8979 33.0889L71.2989 32.9157L72.6749 35.4765H72.1464ZM69.7315 33.2529L69.8044 32.8793H71.2807L71.2078 33.2529H69.7315ZM71.3262 33.1435L70.8888 33.0706L72.9848 30.7195H73.5133L71.3262 33.1435ZM66.2959 35.4765H65.7217L68.1185 32.8884L68.4739 33.0889L66.2959 35.4765ZM69.4307 35.4765H68.9751L69.9319 30.7195H70.3876L69.4307 35.4765ZM69.5674 33.2529H68.1002L68.1822 32.8793H69.6403L69.5674 33.2529ZM68.0456 33.1435L66.8244 30.7195H67.3074L68.4739 33.0706L68.0456 33.1435Z" fill="white"/>
<path d="M77.861 35.5129C77.4175 35.5129 77.0317 35.4339 76.7037 35.276C76.3756 35.1119 76.1235 34.8811 75.9473 34.5834C75.7772 34.2857 75.6921 33.9303 75.6921 33.5172C75.6921 32.9765 75.8045 32.4935 76.0293 32.0682C76.2602 31.6429 76.57 31.3058 76.9588 31.0567C77.3537 30.8076 77.7972 30.683 78.2893 30.683C78.7085 30.683 79.067 30.762 79.3647 30.92C79.6623 31.0779 79.8932 31.3058 80.0572 31.6034C80.2273 31.8951 80.3124 32.2505 80.3124 32.6697C80.3124 32.7608 80.3063 32.8519 80.2942 32.9431C80.282 33.0342 80.2699 33.1192 80.2577 33.1982H76.0384L76.1022 32.8428H80.039L79.8568 32.9977C79.9236 32.5785 79.8962 32.2292 79.7747 31.9497C79.6532 31.6642 79.4619 31.4485 79.2006 31.3027C78.9455 31.1508 78.6386 31.0749 78.2802 31.0749C77.8671 31.0749 77.4965 31.1812 77.1684 31.3938C76.8464 31.6004 76.5943 31.8859 76.412 32.2505C76.2298 32.6089 76.1387 33.0251 76.1387 33.4989C76.1387 34.0153 76.2875 34.4133 76.5852 34.6927C76.8829 34.9661 77.3203 35.1028 77.8975 35.1028C78.2377 35.1028 78.5475 35.0482 78.827 34.9388C79.1125 34.8234 79.3464 34.6654 79.5287 34.4649L79.7383 34.7839C79.5317 35.0087 79.2614 35.1879 78.9272 35.3215C78.5992 35.4491 78.2438 35.5129 77.861 35.5129Z" fill="white"/>
<path d="M83.3748 35.4765L84.3225 30.7195H84.7782L84.3408 32.8884H87.5759L88.0133 30.7195H88.4689L87.5121 35.4765H87.0564L87.503 33.2893H84.2679L83.8304 35.4765H83.3748Z" fill="white"/>
<path d="M91.4757 35.4765L92.4326 30.7195H92.8882L92.0681 34.8021L96.2418 30.7195H96.6883L95.7315 35.4765H95.2667L96.096 31.3847L91.9131 35.4765H91.4757Z" fill="white"/>
<path d="M99.6834 35.4765L100.64 30.7195H101.096L100.276 34.8021L104.45 30.7195H104.896L103.939 35.4765H103.474L104.304 31.3847L100.121 35.4765H99.6834Z" fill="white"/>
</svg>
