<svg width="21" height="21" viewBox="0 0 21 21" fill="none" xmlns="http://www.w3.org/2000/svg">
<g clip-path="url(#clip0_266_1936)">
<path d="M13.3668 3.15947C13.2892 3.18102 9.24184 4.83619 3.46166 7.20688C2.40132 7.64223 1.45304 8.03878 1.35822 8.08619C1.04356 8.24999 0.815112 8.68533 0.853905 9.05602C0.871146 9.19826 3.40132 15.4483 3.58235 15.8017C3.66856 15.9612 3.90563 16.1767 4.08666 16.25C4.3539 16.3621 4.65563 16.3362 5.06942 16.1681C5.27201 16.0862 5.44011 16.0172 5.44873 16.0172C5.45304 16.0172 5.45735 16.2155 5.45735 16.4612C5.45735 17.0474 5.53494 17.3017 5.78063 17.5474C6.12546 17.8922 5.62115 17.8707 12.8065 17.8707C19.8496 17.8707 19.4703 17.8836 19.7936 17.6034C19.8755 17.5302 19.9875 17.3879 20.0392 17.2931L20.1341 17.1164L20.147 13.4741C20.1556 10.1724 20.1513 9.81464 20.0867 9.64223C19.9961 9.40516 19.8022 9.18533 19.578 9.06464C19.4099 8.97412 19.3453 8.96981 18.0134 8.95688C16.9875 8.94826 16.6255 8.93102 16.6082 8.89223C16.3367 8.21119 14.5005 3.7543 14.453 3.66378C14.3711 3.50861 14.1858 3.33188 14.0091 3.24568C13.8625 3.1724 13.5005 3.12068 13.3668 3.15947ZM13.7074 3.86636C13.841 3.93102 14.2375 4.81033 14.1513 4.85774C14.1211 4.87499 12.1599 5.68102 9.78925 6.65516C7.41856 7.62499 4.71166 8.73705 3.77632 9.12068C2.84097 9.5043 2.03063 9.83619 1.9789 9.85343C1.8927 9.88792 1.87546 9.85774 1.71166 9.45257C1.61253 9.21119 1.53494 8.97843 1.53494 8.93964C1.53494 8.72412 1.25477 8.84481 12.9789 4.05171C13.2892 3.9224 13.5522 3.81895 13.5694 3.81895C13.5867 3.81895 13.647 3.8405 13.7074 3.86636ZM14.5565 5.69826C14.6039 5.81033 14.6341 5.90516 14.6298 5.90947C14.6211 5.91809 12.953 6.60343 10.9229 7.43533L7.2289 8.94826H6.82373C6.59528 8.94826 6.32804 8.97412 6.20735 9.01292C5.96597 9.08188 5.71597 9.28447 5.59959 9.5043C5.52632 9.63792 5.42718 9.68533 4.01339 10.2715C3.18149 10.6121 2.46597 10.9008 2.41856 10.9138C2.34959 10.931 2.3108 10.9008 2.25477 10.7802C2.21597 10.694 2.18149 10.6034 2.18149 10.569C2.18149 10.5388 2.40132 10.4267 2.66425 10.319C3.16856 10.1164 13.7461 5.78016 14.1642 5.60343C14.2936 5.5474 14.4186 5.5043 14.4358 5.49999C14.453 5.49999 14.5091 5.5905 14.5565 5.69826ZM15.397 7.7543L15.8755 8.92671L14.203 8.93964C13.2849 8.94395 11.7591 8.94395 10.8194 8.93964L9.1039 8.92671L11.9444 7.7543C13.5091 7.11205 14.8194 6.58188 14.8539 6.58188C14.897 6.57757 15.0608 6.93102 15.397 7.7543ZM19.2634 9.68533C19.3237 9.71119 19.3927 9.78016 19.4186 9.8405C19.453 9.91378 19.466 10.7327 19.466 12.5474V15.1552H12.8065H6.14701V12.5215V9.88792L6.27201 9.76292L6.39701 9.63792H12.7806C17.3625 9.63792 19.1901 9.65085 19.2634 9.68533ZM5.45735 12.8405V15.2672L5.0177 15.4483C4.53063 15.6465 4.37546 15.6681 4.25908 15.5517C4.18149 15.4741 2.58666 11.6336 2.62115 11.5991C2.63408 11.5862 5.36252 10.444 5.44873 10.4181C5.45304 10.4138 5.45735 11.5043 5.45735 12.8405ZM19.466 16.3879V16.931L19.341 17.056L19.2117 17.181L12.7892 17.1724L6.36684 17.1595L6.2677 17.0603C6.17718 16.9698 6.16856 16.9181 6.15563 16.4052L6.13839 15.8448H12.8022H19.466V16.3879Z" fill="#303030"/>
<path d="M7.42275 10.1336C7.20292 10.2112 7.01758 10.3922 6.96585 10.5819C6.90982 10.7845 6.90982 12.0301 6.96585 12.2327C7.03051 12.4526 7.29775 12.6853 7.53482 12.7198C7.63827 12.737 8.14689 12.7414 8.66844 12.7327C9.5693 12.7198 9.62534 12.7155 9.7762 12.6207C10.065 12.4439 10.1124 12.2672 10.1124 11.4138C10.1124 10.5991 10.0865 10.4784 9.87103 10.2758C9.80206 10.2155 9.66844 10.1422 9.57361 10.1164C9.31068 10.0474 7.63396 10.056 7.42275 10.1336ZM9.41413 11.4138L9.42706 12.0517H8.51758H7.61241V11.4353C7.61241 11.0948 7.62534 10.8017 7.64258 10.7845C7.65982 10.7715 8.06068 10.7629 8.53482 10.7672L9.4012 10.7801L9.41413 11.4138Z" fill="#303030"/>
</g>
<defs>
<clipPath id="clip0_266_1936">
<rect width="20" height="20" fill="white" transform="translate(0.5 0.5)"/>
</clipPath>
</defs>
</svg>
