<svg width="30" height="30" viewBox="0 0 30 30" fill="none" xmlns="http://www.w3.org/2000/svg">
<path d="M8.96484 0.621094C7.14258 0.779297 5.80664 1.07812 4.67578 1.57031C3.88477 1.91602 3.09961 2.60742 2.89453 3.13477C2.78906 3.42188 2.7832 3.67969 2.7832 12.041V20.6543L2.94727 20.9883C3.14062 21.375 3.62695 21.8438 4.1543 22.1543L4.5 22.3535L4.54102 22.7637C4.71094 24.627 5.37305 26.0742 6.61523 27.3105C7.89258 28.5879 9.39844 29.2676 11.2266 29.3906C12.6855 29.4844 14.4082 29.0039 15.6211 28.1543L15.9961 27.8906L16.4824 28.0078C17.9062 28.3418 20.2207 28.459 21.7969 28.2773C24.5391 27.9609 26.5137 27.0762 27.0762 25.9277L27.2168 25.6348V21.123V16.6113L27.0527 16.2773C26.8652 15.8965 26.3848 15.4277 25.875 15.123C24.9551 14.5723 23.4082 14.1328 21.7383 13.9453C20.6777 13.8223 18.3809 13.875 17.4785 14.0391L17.2852 14.0742V8.7832C17.2852 5.35547 17.2617 3.41016 17.2266 3.26953C17.1328 2.94727 16.8164 2.52539 16.4355 2.21484C15.5508 1.5 14.0684 0.984375 12.1582 0.732422C11.4785 0.644531 9.50391 0.574219 8.96484 0.621094ZM11.9531 1.40625C14.6016 1.73438 16.582 2.71289 16.582 3.69141C16.582 4.61133 15.0059 5.49023 12.5566 5.92969C11.8887 6.04687 11.6191 6.06445 10.1074 6.06445C8.32031 6.06445 7.875 6.02344 6.73828 5.76562C5.4375 5.47265 4.47656 5.05078 3.9375 4.5293C3.48633 4.0957 3.39258 3.82617 3.53906 3.43359C3.9375 2.39062 5.99414 1.58789 8.96484 1.32422C9.4043 1.2832 11.4258 1.3418 11.9531 1.40625ZM4.51172 5.77148C5.17383 6.10547 6.41602 6.46289 7.58789 6.65625C8.48438 6.79687 10.8867 6.83203 11.9062 6.71484C13.8281 6.49219 15.4219 5.98242 16.3066 5.30859L16.582 5.09766V5.91211V6.72656L16.3945 7.00781C15.4395 8.42578 11.2969 9.24023 7.69336 8.71875C7.24805 8.65429 7.20117 8.66015 7.08984 8.75976C6.93164 8.90625 6.9375 9.17578 7.10742 9.28125C7.48828 9.52734 10.418 9.66211 11.8359 9.49804C13.6934 9.28711 15.498 8.71289 16.2891 8.08594C16.4121 7.98633 16.5293 7.91015 16.5469 7.91015C16.5645 7.91015 16.582 8.26172 16.582 8.68945C16.582 9.45117 16.5762 9.47461 16.4121 9.73828C15.627 10.9746 12.2637 11.8301 9.06445 11.6133C6.65039 11.4492 4.75195 10.8691 3.90234 10.0371C3.52734 9.66797 3.45703 9.45703 3.45703 8.5957V7.83984L3.67969 8.00976C4.25977 8.46094 4.54102 8.53125 4.69336 8.25586C4.80469 8.04492 4.70508 7.86914 4.34766 7.62304C3.57422 7.0957 3.45703 6.85547 3.45703 5.83008V5.09766L3.84375 5.36719C4.06055 5.51367 4.35938 5.69531 4.51172 5.77148ZM3.79102 10.8633C5.87695 12.3457 10.6113 12.7969 14.0625 11.8418C14.8828 11.6133 15.6328 11.291 16.1367 10.9512L16.5527 10.6758L16.5703 11.4316C16.5879 12.3105 16.5293 12.4863 16.084 12.8789C14.8652 13.9512 11.6484 14.6016 8.77148 14.3613C6.25781 14.1504 4.21875 13.4121 3.66211 12.5098C3.49219 12.2402 3.48633 12.1992 3.46875 11.4434C3.45703 11.0156 3.46289 10.6641 3.48047 10.6641C3.49805 10.6641 3.63867 10.752 3.79102 10.8633ZM3.63281 13.5117C3.87891 13.7988 4.99219 14.3203 5.97656 14.5957C9.4043 15.5625 14.0449 15.1348 16.248 13.6465L16.582 13.418V13.8281C16.582 14.1914 16.5703 14.2383 16.4707 14.2383C16.043 14.2383 14.373 14.8945 13.7988 15.293L13.5293 15.4805L13.0195 15.3691C12.3164 15.2227 10.8926 15.2227 10.1953 15.375C9.22266 15.5859 8.16211 16.0605 7.44141 16.6055L7.06055 16.8926L6.70898 16.8223C5.13867 16.4941 3.70312 15.6914 3.52148 15.0234C3.44531 14.748 3.43359 13.418 3.50977 13.418C3.53906 13.418 3.5918 13.459 3.63281 13.5117ZM21.6797 14.6543C23.584 14.8359 25.3359 15.4336 26.0742 16.1602C26.6895 16.7637 26.6777 17.2207 26.0215 17.8242C25.2773 18.5156 23.7246 19.0488 21.7969 19.2832C21.0938 19.3711 19.1133 19.3887 18.457 19.3184L18.0176 19.2656L17.7422 18.791C17.0508 17.584 16.0254 16.6172 14.7773 15.9902L14.3555 15.7734L14.5547 15.6562C14.666 15.5918 14.9883 15.4453 15.2754 15.3281C16.8926 14.6836 19.3066 14.4258 21.6797 14.6543ZM11.25 16.2012C11.25 16.623 11.5254 16.8164 11.8242 16.6055C11.9297 16.5352 11.9531 16.459 11.9531 16.2246C11.9531 15.8965 11.9062 15.9082 12.6328 16.0254C13.1953 16.1133 14.0098 16.377 14.502 16.6289C14.877 16.8164 15.5801 17.291 15.7266 17.4492C15.832 17.5723 15.832 17.5781 15.6504 17.7832C15.4336 18.0352 15.4219 18.123 15.6152 18.3105C15.8027 18.5039 15.8906 18.4922 16.1426 18.2754C16.3477 18.0938 16.3535 18.0938 16.4766 18.1992C16.6816 18.3867 17.1738 19.1543 17.4082 19.6582C17.6484 20.1738 17.8945 21.0293 17.959 21.6035L18 21.9727H17.7305C17.5371 21.9727 17.4258 22.0078 17.3438 22.0898C17.0801 22.3535 17.291 22.6758 17.7305 22.6758H18L17.959 23.0391C17.8301 24.1758 17.2441 25.5645 16.5645 26.3379L16.3594 26.5723L16.1602 26.3789C15.8906 26.1211 15.6797 26.127 15.5391 26.4082C15.457 26.5605 15.498 26.6953 15.6973 26.9121L15.8496 27.082L15.5918 27.3047C14.7949 27.9961 13.5645 28.4941 12.2051 28.6758L11.9531 28.7109V28.4355C11.9531 28.125 11.8359 27.9492 11.6191 27.9492C11.3965 27.9492 11.25 28.1484 11.25 28.4414V28.6992L11.0039 28.6758C10.1602 28.582 9.2168 28.2832 8.48438 27.873C8.06836 27.6387 7.38281 27.1465 7.38281 27.0762C7.38281 27.0527 7.46484 26.959 7.55859 26.8652C7.76367 26.6719 7.78125 26.4727 7.61719 26.3086C7.45312 26.1445 7.30078 26.1621 7.07227 26.3672C6.96094 26.4668 6.85547 26.543 6.83789 26.543C6.82031 26.543 6.65625 26.3379 6.47461 26.0918C5.85352 25.248 5.39648 24.0938 5.28516 23.0977L5.23828 22.6758H5.47852C5.77734 22.6758 5.97656 22.541 5.97656 22.3418C5.97656 22.0957 5.82422 21.9727 5.50781 21.9727H5.23828L5.28516 21.5449C5.4082 20.4961 5.77148 19.5645 6.39844 18.6504C6.80859 18.0586 6.81445 18.0586 7.06055 18.2754C7.30078 18.4863 7.45312 18.5039 7.61719 18.3398C7.78125 18.1758 7.76367 17.9941 7.54688 17.7715C7.31836 17.5371 7.33008 17.5254 8.08008 17.0215C8.88281 16.4883 9.60352 16.2012 10.5703 16.0254C11.2559 15.8965 11.25 15.8965 11.25 16.2012ZM3.78516 16.377C4.17188 16.6699 5.02148 17.0684 5.74219 17.291C6.08203 17.3965 6.36914 17.4902 6.38086 17.4961C6.39258 17.5078 6.29883 17.6426 6.16992 17.7949C5.97656 18.0293 5.60742 18.5684 5.30273 19.0664C5.25 19.1484 5.20312 19.1367 4.83398 18.9551C4.29492 18.6855 3.88477 18.3691 3.66211 18.0586C3.49219 17.8066 3.48633 17.7891 3.46875 16.9863C3.45703 16.541 3.46289 16.1719 3.48047 16.1719C3.49805 16.1719 3.63867 16.2656 3.78516 16.377ZM26.543 19.1191C26.543 19.7812 26.5312 19.8633 26.3906 20.1504C25.9688 20.9941 24.1816 21.7441 21.9141 22.0313C21.2227 22.1191 19.5586 22.1719 19.1016 22.125L18.7148 22.084L18.6445 21.5156C18.5859 21.0352 18.4922 20.5605 18.3691 20.1504C18.3398 20.0742 18.5039 20.0625 19.7871 20.0625C21.3223 20.0625 21.9375 20.0098 23.1328 19.7695C24.4043 19.5176 25.5879 19.0605 26.2207 18.5859C26.3496 18.4863 26.4727 18.4043 26.502 18.4043C26.5254 18.3984 26.543 18.7207 26.543 19.1191ZM4.5 19.5645C4.76367 19.6992 4.98047 19.8164 4.98047 19.8281C4.98047 19.8398 4.92773 19.998 4.86328 20.1855C4.79883 20.373 4.70508 20.7539 4.65234 21.0293C4.59961 21.3047 4.55273 21.5449 4.54102 21.5508C4.5 21.5918 3.99609 21.2109 3.80859 21C3.50391 20.6484 3.45703 20.4727 3.45703 19.6523V18.9141L3.73828 19.1191C3.89062 19.2305 4.23047 19.4355 4.5 19.5645ZM26.543 21.8379C26.543 22.7402 26.4902 22.916 26.1035 23.291C25.4297 23.9473 23.9766 24.498 22.2012 24.7559C21.4453 24.8672 19.623 24.9316 18.8496 24.873C18.293 24.832 18.2695 24.8262 18.2988 24.7031C18.3164 24.6387 18.3984 24.3047 18.4805 23.9648C18.5625 23.625 18.6445 23.2324 18.6621 23.0859L18.6914 22.8223L20.0859 22.8164C21.1934 22.8105 21.6445 22.7813 22.3125 22.6816C24.082 22.4121 25.5703 21.8965 26.2793 21.3047C26.3789 21.2227 26.4727 21.1582 26.502 21.1523C26.5254 21.1523 26.543 21.4629 26.543 21.8379ZM26.5312 24.7207C26.5137 25.5234 26.5078 25.541 26.3379 25.793C25.7168 26.6719 23.7949 27.3867 21.4863 27.6035C20.5605 27.6855 18.4629 27.6387 17.7246 27.5215C17.4375 27.4688 17.0859 27.4102 16.9512 27.3926C16.8105 27.3691 16.6992 27.3281 16.6992 27.2988C16.6992 27.2754 16.8398 27.0938 17.0098 26.8945C17.1797 26.7012 17.4668 26.3027 17.6426 26.0156L17.959 25.4941L18.2812 25.5352C18.832 25.6055 21.3223 25.582 21.9727 25.5C23.7598 25.2773 25.5527 24.6797 26.25 24.082C26.3613 23.9883 26.4785 23.9121 26.502 23.9063C26.5312 23.9063 26.543 24.2754 26.5312 24.7207Z" fill="#303030"/>
<path d="M8.93598 2.0918C7.90473 2.16211 6.38129 2.45508 6.19965 2.61914C6.04145 2.75977 6.06488 3.02344 6.24066 3.14063C6.37543 3.22852 6.42231 3.22266 6.90863 3.11133C7.62934 2.94141 8.49652 2.82422 9.40473 2.77735C10.2426 2.73633 10.3715 2.6836 10.3715 2.39649C10.3715 2.06836 10.102 2.00977 8.93598 2.0918Z" fill="#303030"/>
<path d="M4.86328 3.14063C4.45898 3.36914 4.27734 3.56836 4.27734 3.7793C4.27734 3.87891 4.30664 3.99024 4.34766 4.03125C4.43555 4.11914 4.78125 4.125 4.83398 4.04297C4.85742 4.00782 5.01563 3.87891 5.19141 3.74414C5.51953 3.50391 5.58398 3.34571 5.4375 3.15235C5.30273 2.98828 5.13867 2.98242 4.86328 3.14063Z" fill="#303030"/>
<path d="M10.6061 17.2559C9.46355 17.5137 8.49675 18.0645 7.77605 18.873C5.94207 20.9355 6.02996 24.0352 7.98113 25.9746C9.42839 27.4102 11.5788 27.8555 13.4831 27.123C13.9811 26.9297 14.1628 26.7598 14.0925 26.543C14.069 26.4785 13.9928 26.3848 13.9225 26.332C13.7995 26.2559 13.7526 26.2617 13.3542 26.4199C11.7956 27.041 10.1901 26.8301 8.87761 25.8223C6.70964 24.1641 6.58074 20.8652 8.60808 19.0371C9.45769 18.2637 10.4772 17.8711 11.6315 17.8711C12.8444 17.8711 13.9518 18.3457 14.8073 19.2246C15.61 20.0566 15.9792 20.9297 16.0378 22.0957C16.0788 22.8809 15.9792 23.4551 15.6921 24.082C15.487 24.5449 15.4928 24.7793 15.7155 24.8906C15.9323 24.9902 16.0788 24.9082 16.237 24.5977C16.7175 23.6602 16.8815 22.3535 16.6647 21.2813C16.5651 20.7832 16.2839 20.0859 15.985 19.5879C15.7272 19.1543 15.0651 18.4512 14.6139 18.1289C14.1686 17.8125 13.4069 17.4492 12.8913 17.3145C12.3639 17.1797 11.1042 17.1445 10.6061 17.2559Z" fill="#303030"/>
<path d="M10.4062 19.3477C10.3301 19.459 10.3125 19.6934 10.3125 20.7246V21.9727H9.96094C9.58008 21.9727 9.375 22.0957 9.375 22.3242C9.375 22.5527 9.58008 22.6758 9.96094 22.6758H10.3125V22.9395V23.2031H9.97266C9.58008 23.2031 9.375 23.3145 9.375 23.5313C9.375 23.7832 9.56836 23.9063 9.96094 23.9063H10.3125V24.4277C10.3125 24.9258 10.3184 24.9609 10.4707 25.0723C10.6348 25.207 10.8164 25.1895 10.9453 25.0313C10.9863 24.9727 11.0156 24.7441 11.0156 24.4219V23.9063H12.0117C12.9316 23.9063 13.0195 23.8945 13.125 23.7891C13.1895 23.7246 13.2422 23.6191 13.2422 23.5547C13.2422 23.4902 13.1895 23.3848 13.125 23.3203C13.0195 23.2148 12.9316 23.2031 12.0117 23.2031H11.0156V22.9453V22.6875L11.7363 22.6641C12.3691 22.6465 12.4863 22.623 12.75 22.4883C13.3945 22.1484 13.752 21.5215 13.6992 20.8066C13.6523 20.168 13.3301 19.6816 12.7617 19.4004C12.4043 19.2188 12.3984 19.2188 11.4492 19.2188C10.5293 19.2188 10.4941 19.2246 10.4062 19.3477ZM12.5039 20.0566C12.6504 20.1387 12.7852 20.2852 12.873 20.4434C13.125 20.9238 13.0137 21.416 12.5801 21.7617C12.3633 21.9375 12.3281 21.9434 11.6836 21.9668L11.0156 21.9844V20.9531V19.9219H11.6484C12.1875 19.9219 12.3047 19.9395 12.5039 20.0566Z" fill="#303030"/>
</svg>
