<svg width="30" height="30" viewBox="0 0 30 30" fill="none" xmlns="http://www.w3.org/2000/svg">
<g clip-path="url(#clip0_265_2770)">
<path d="M9.08203 0.111328C7.64648 0.427734 6.46289 1.08398 5.41992 2.13281C4.55273 3 4.01953 3.86133 3.63867 5.00977C3.15234 6.48633 3.16992 8.02148 3.69727 10.0605C4.04883 11.4316 4.81055 13.5 5.63086 15.3164C5.81836 15.7324 5.95898 16.0957 5.94141 16.1191C5.92383 16.1484 5.86523 16.1719 5.80664 16.1719C5.74805 16.1719 5.67188 16.207 5.63672 16.2422C5.54883 16.3594 0 29.4609 0 29.5664C0 29.6133 0.0761719 29.7363 0.169922 29.8301L0.339844 30H15.0176H29.6895L29.8477 29.8535C29.9297 29.7773 30 29.6602 30 29.5898C30 29.5254 29.3555 27.9551 28.5703 26.0977L27.1406 22.7344L27.3633 22.3594C27.668 21.8613 27.8672 21.3691 28.0195 20.7539C28.2012 20.0273 28.2012 18.8145 28.0195 18.0879C27.5098 16.0547 26.0332 14.502 24.041 13.9102C23.4082 13.7227 22.2246 13.6523 21.5273 13.7695C20.2617 13.9688 18.8965 14.7539 18.0996 15.7324L17.7949 16.1133H16.3945C15.5566 16.1133 15 16.0898 15 16.0605C15 16.0254 15.0938 15.7969 15.2109 15.5449C16.4766 12.8086 17.3203 10.3418 17.6074 8.52539C17.7246 7.79883 17.7305 6.63281 17.6133 5.98828C17.2031 3.67383 15.7559 1.75195 13.623 0.697266C12.5508 0.169922 12 0.0410156 10.6641 0.0234375C9.77344 0.00585938 9.49219 0.0234375 9.08203 0.111328ZM12.0996 1.11328C12.6914 1.27148 13.6465 1.72266 14.1504 2.08008C15.8965 3.32812 16.916 5.44922 16.7988 7.58203C16.6816 9.5918 15.7031 12.4395 13.7461 16.4355C12.4922 18.9961 10.5176 22.6113 10.4238 22.5176C10.3066 22.3945 9.27539 20.5488 8.54883 19.1602C6.375 15 4.96289 11.584 4.42969 9.19922C4.125 7.81641 4.11328 6.73828 4.39453 5.66016C4.95117 3.55078 6.65039 1.78711 8.71289 1.17773C9.41016 0.972656 9.67383 0.943359 10.6641 0.966797C11.4258 0.978516 11.7305 1.01367 12.0996 1.11328ZM23.6426 14.7422C25.418 15.2227 26.7891 16.6465 27.1582 18.3809C27.2871 18.9785 27.2695 19.9805 27.1289 20.543C26.666 22.3652 25.2832 23.707 23.4609 24.1172C22.793 24.2637 21.6387 24.2109 21.0059 24C18.4277 23.1562 17.0449 20.4434 17.9062 17.9121C18.4688 16.2598 19.8574 15.0293 21.5566 14.6719C22.043 14.5723 23.1562 14.6074 23.6426 14.7422ZM6.71484 17.5312C6.86719 17.8301 7.26562 18.5859 7.59961 19.207C7.93945 19.834 8.20312 20.3496 8.19141 20.3555C8.18555 20.3613 7.89844 20.4258 7.55859 20.502C5.75977 20.8945 4.58789 21.7148 4.4707 22.6641C4.33594 23.8301 5.73633 24.7969 8.24414 25.2598C9.16992 25.4355 11.1855 25.4766 12.2461 25.3477C14.1152 25.1191 15.5625 24.5625 16.2129 23.8242C16.4707 23.5312 16.6406 23.1328 16.6406 22.8223C16.6406 21.8086 15.2871 20.8359 13.3652 20.4668C13.0898 20.4141 12.8555 20.3672 12.8438 20.3613C12.832 20.3496 13.0488 19.9277 13.3184 19.418C13.5938 18.9023 13.9805 18.1523 14.1855 17.7363L14.5605 16.9922H15.9141H17.2734L17.1094 17.3848C16.6641 18.4453 16.623 19.9102 17.0039 21.1406C17.2969 22.1074 18.041 23.1973 18.8379 23.8418C20.9941 25.5762 23.9473 25.5586 26.1094 23.8008L26.4609 23.5137L27.6094 26.1855C28.2422 27.6562 28.7812 28.9043 28.7988 28.9629C28.8398 29.0566 28.1602 29.0625 15.0059 29.0625C7.39453 29.0625 1.17188 29.0508 1.17188 29.0332C1.17188 29.0215 2.29688 26.3613 3.66797 23.1328C5.03906 19.8984 6.1875 17.1973 6.2168 17.1211C6.31055 16.875 6.43945 16.9805 6.71484 17.5312ZM9.375 22.459C9.73242 23.0625 10.1074 23.6367 10.1953 23.7305C10.3945 23.9414 10.5996 23.959 10.7988 23.7715C10.8809 23.7012 11.2559 23.1035 11.6309 22.4414C12.0059 21.7793 12.3223 21.2344 12.3223 21.2285C12.3574 21.1992 13.377 21.4102 13.8047 21.5391C14.7715 21.8145 15.5742 22.3184 15.668 22.7109C15.7734 23.1211 15.1699 23.6133 14.1035 23.9941C11.6543 24.8672 7.62305 24.6562 5.92969 23.5605C5.52539 23.2969 5.33203 23.0508 5.33203 22.7988C5.33203 22.5293 5.70703 22.1484 6.22852 21.8965C6.95508 21.5332 8.50781 21.1465 8.64844 21.293C8.68359 21.3281 9.01172 21.8496 9.375 22.459Z" fill="#303030"/>
<path d="M9.99025 2.58398C6.88478 2.92383 5.03908 6.3164 6.44533 9.11133C7.81642 11.8418 11.3848 12.4746 13.5996 10.3828C14.6543 9.39258 15.1817 7.94531 15.0059 6.55664C14.6895 4.07226 12.4688 2.30859 9.99025 2.58398ZM11.2735 3.54492C12.5684 3.82031 13.6992 4.92187 14.0332 6.24023C14.1445 6.68554 14.1445 7.49414 14.0332 7.93945C13.7813 8.93554 13.0137 9.89062 12.1231 10.3301C10.6934 11.0332 9.06447 10.7637 7.93361 9.63281C7.20705 8.91211 6.80275 7.86914 6.87892 6.9082C7.06056 4.65234 9.10549 3.08203 11.2735 3.54492Z" fill="#303030"/>
<path d="M23.4073 19.1602C22.3761 20.1914 21.5206 21.0352 21.503 21.0352C21.4855 21.0293 21.2394 20.7246 20.9464 20.3496C19.921 19.0195 19.8859 18.9844 19.628 18.9844C19.4581 18.9844 19.3761 19.0195 19.3116 19.1133C19.1007 19.4121 19.1652 19.541 20.132 20.7773C21.2335 22.1895 21.2101 22.166 21.4503 22.1602C21.6202 22.1543 21.8722 21.9258 23.7706 20.0273C26.0558 17.7422 26.0382 17.7715 25.7745 17.4375C25.6925 17.332 25.5987 17.2852 25.4698 17.2852C25.2999 17.2852 25.0831 17.4844 23.4073 19.1602Z" fill="#303030"/>
</g>
<defs>
<clipPath id="clip0_265_2770">
<rect width="30" height="30" fill="white"/>
</clipPath>
</defs>
</svg>
