<svg width="60" height="60" viewBox="0 0 60 60" fill="none" xmlns="http://www.w3.org/2000/svg">
<path d="M8.21436 1.3711C7.2417 1.71095 6.21045 3.07032 6.21045 3.98438C6.21045 4.16016 5.99951 4.19532 4.31201 4.2422C2.71826 4.28907 2.31982 4.33595 1.87451 4.53516C1.2417 4.82813 0.655762 5.37891 0.315918 6.02345L0.0581055 6.50391L0.0229492 28.6523C0.0112305 40.8281 0.0229492 50.918 0.0581055 51.0703C0.0932617 51.2109 0.222168 51.4336 0.351074 51.5625C0.562012 51.7734 0.749512 51.7969 2.34326 51.7969H4.10107V53.3672C4.10107 54.2227 4.15967 55.1016 4.22998 55.3125C4.48779 56.0508 3.77295 56.0156 18.8081 56.0156H32.4722L33.3745 56.5547C35.0386 57.5625 36.8667 58.2891 38.9409 58.7344C39.937 58.9453 40.523 58.9922 42.4214 58.9922C44.9175 59.0039 45.6909 58.8867 47.812 58.2187C56.5659 55.4297 61.6636 46.2773 59.4605 37.2891C58.312 32.6016 55.2651 28.6172 50.9175 26.1445C50.3433 25.8164 49.8276 25.5469 49.7808 25.5469C49.7339 25.5469 49.6753 21.293 49.6636 16.0781C49.6284 5.56641 49.6753 6.25782 48.8198 5.29688C48.0933 4.48829 47.4605 4.30079 45.3159 4.2422L43.4761 4.19532L43.4058 3.87891C43.0776 2.29688 42.0464 1.32423 40.5933 1.19532C39.023 1.06641 37.5581 2.20313 37.312 3.73829L37.23 4.21876H35.144C33.0464 4.21876 33.0464 4.21876 33.0464 3.94923C33.0464 3.09376 32.2847 1.98048 31.3589 1.48829C30.6792 1.12501 29.3198 1.12501 28.6401 1.48829C27.7144 1.98048 26.9526 3.09376 26.9526 3.94923C26.9526 4.21876 26.9526 4.21876 24.855 4.21876H22.769L22.687 3.73829C22.4409 2.20313 20.9761 1.06641 19.4058 1.19532C17.9644 1.32423 16.9214 2.3086 16.5933 3.89063L16.523 4.21876H14.4956H12.4565L12.3276 3.63282C11.894 1.75782 10.0308 0.72657 8.21436 1.3711ZM10.019 3.57423C10.3003 3.84376 10.312 3.90235 10.312 5.62501V7.38282H9.31592H8.31983V5.62501C8.31983 3.90235 8.33154 3.84376 8.61279 3.57423C8.99951 3.17579 9.63233 3.17579 10.019 3.57423ZM20.355 3.56251L20.6831 3.84376V5.58985V7.32423L19.6636 7.35938L18.6323 7.39454V5.64845C18.6323 3.96095 18.644 3.89063 18.9253 3.58595C19.3003 3.18751 19.898 3.17579 20.355 3.56251ZM30.7144 3.58595C30.9839 3.8672 30.9956 3.97266 31.0308 5.63673L31.0659 7.38282H29.9995H28.9331L28.9683 5.63673C29.0034 3.97266 29.0151 3.8672 29.2847 3.58595C29.4956 3.36329 29.6948 3.28126 29.9995 3.28126C30.3042 3.28126 30.5034 3.36329 30.7144 3.58595ZM41.0737 3.58595C41.355 3.89063 41.3667 3.96095 41.3667 5.64845V7.39454L40.3472 7.35938L39.3159 7.32423V5.58985V3.84376L39.644 3.56251C40.1011 3.17579 40.6987 3.18751 41.0737 3.58595ZM6.21045 7.44141C6.21045 9.38673 6.36279 9.4922 9.31592 9.4922C12.269 9.4922 12.4214 9.38673 12.4214 7.44141V6.32813H14.4605H16.4995L16.5464 7.5586C16.5815 8.71876 16.605 8.80079 16.9097 9.10548L17.2261 9.4336L19.1831 9.46876C21.5151 9.51563 22.0776 9.45704 22.4526 9.08204C22.7105 8.82423 22.7339 8.70704 22.7339 7.5586V6.32813L24.8198 6.35157L26.894 6.38673L26.9292 7.62891C26.9526 8.78907 26.9761 8.89454 27.2573 9.15235C27.5503 9.4336 27.5855 9.4336 30.0112 9.4336H32.4605L32.7651 9.1172C33.0581 8.82423 33.0933 8.71876 33.1401 7.57032L33.1987 6.32813H35.2261H37.2651V7.5586C37.2651 8.70704 37.2886 8.82423 37.5464 9.08204C37.9214 9.45704 38.4839 9.51563 40.8159 9.46876L42.773 9.4336L43.0894 9.10548C43.4058 8.80079 43.4175 8.71876 43.4526 7.54688L43.4995 6.31641L45.2573 6.35157L47.0151 6.38673L47.2964 6.71485C47.5776 7.04298 47.5776 7.0547 47.5776 9.79688V12.5391H24.8433H2.10889V9.73829V6.93751L2.47217 6.63282C2.82373 6.33985 2.87061 6.32813 4.52295 6.32813H6.21045V7.44141ZM47.5776 19.6758V24.7031L46.7339 24.4805C40.4878 22.8398 33.5972 24.9609 29.2612 29.8594C26.5894 32.8828 25.0542 36.6445 24.8784 40.6641C24.7495 43.7578 25.3003 46.3945 26.7886 49.6523C26.8472 49.7695 24.3394 49.8047 14.4839 49.8047H2.10889V32.2266V14.6484H24.8433H47.5776V19.6758ZM44.7065 26.1797C51.1401 27.1875 56.2495 32.0391 57.6206 38.4375C57.9136 39.832 57.9136 43.125 57.6206 44.5312C56.3198 50.625 51.9019 55.1719 45.9253 56.6016C37.5815 58.582 29.144 53.2266 27.2456 44.7656C26.9878 43.5938 26.8823 40.6055 27.0698 39.3516C27.8081 34.2188 30.9722 29.8594 35.6128 27.5977C36.855 26.9883 38.5894 26.4258 39.8784 26.2031C41.1558 25.9922 43.4058 25.9805 44.7065 26.1797ZM28.769 52.5234C29.0972 52.9102 29.4722 53.3906 29.6245 53.5781L29.894 53.9062H18.0581H6.21045V52.8516V51.7969H17.2026H28.1831L28.769 52.5234Z" fill="#706F6F"/>
<path d="M8.37805 18.8906C5.99914 19.7344 5.4718 22.7695 7.45226 24.2813C9.2218 25.6406 11.7296 24.75 12.3155 22.5586C12.6085 21.4805 12.0812 20.0742 11.132 19.3828C10.3234 18.7969 9.2218 18.5977 8.37805 18.8906ZM10.0187 21.1524C10.6515 21.7734 10.2062 22.8516 9.31555 22.8516C8.74133 22.8516 8.31945 22.4297 8.31945 21.8555C8.31945 20.9649 9.39758 20.5195 10.0187 21.1524Z" fill="#706F6F"/>
<path d="M18.7139 18.9141C17.2022 19.4531 16.335 20.9414 16.6397 22.4531C16.8741 23.5664 17.7764 24.5391 18.8546 24.8437C20.1788 25.207 21.6085 24.5977 22.3585 23.3437C22.628 22.8633 22.6749 22.6641 22.6749 21.8555C22.6749 20.7422 22.4288 20.1797 21.6671 19.5352C20.8233 18.8086 19.6866 18.5742 18.7139 18.9141ZM20.3194 21.1172C20.7647 21.5273 20.7764 22.125 20.3311 22.5586C19.6397 23.2617 18.4444 22.582 18.6788 21.6211C18.8663 20.8945 19.7569 20.625 20.3194 21.1172Z" fill="#706F6F"/>
<path d="M28.8633 18.9961C28.1367 19.2773 27.2578 20.1797 27.0703 20.8359C26.8828 21.5391 26.9297 22.5 27.1992 23.0859C27.6914 24.1758 28.8633 24.9609 30 24.9609C31.6054 24.9609 33.0351 23.5312 33.0469 21.9141C33.0469 20.9648 32.8711 20.4727 32.2734 19.8164C31.3711 18.8203 30.1172 18.5156 28.8633 18.9961ZM30.7031 21.1523C31.3125 21.7969 30.8789 22.8516 30 22.8516C29.6953 22.8516 29.4961 22.7695 29.2969 22.5586C28.6875 21.9141 29.1211 20.8594 30 20.8594C30.3047 20.8594 30.5039 20.9414 30.7031 21.1523Z" fill="#706F6F"/>
<path d="M8.02692 27.3516C5.6363 28.4648 5.65974 31.8633 8.06208 32.9531C8.7652 33.2695 9.92536 33.2578 10.605 32.9297C11.3316 32.5781 12.0113 31.793 12.234 31.043C12.4683 30.2695 12.4683 29.9648 12.234 29.1914C11.8707 27.9492 10.6636 27.0703 9.31598 27.0703C8.8238 27.0703 8.43708 27.1523 8.02692 27.3516ZM10.0543 29.4844C10.441 29.918 10.4058 30.4922 9.9488 30.8672C9.44489 31.2891 8.87067 31.2305 8.47223 30.7148C8.22614 30.3984 8.28473 29.7188 8.58942 29.4492C9.09333 28.9805 9.60895 28.9922 10.0543 29.4844Z" fill="#706F6F"/>
<path d="M18.3979 27.3047C17.437 27.75 16.8276 28.5352 16.6284 29.5664C16.3237 31.2188 17.437 32.8594 19.0776 33.1406C20.9878 33.4688 22.5815 32.2149 22.7104 30.2695C22.7456 29.6836 22.7104 29.4375 22.476 28.9219C21.9253 27.7383 21.0698 27.1641 19.7456 27.1055C19.101 27.0703 18.8081 27.1172 18.3979 27.3047ZM20.3667 29.4492C20.5307 29.6016 20.6245 29.8242 20.6245 30.0703C20.6245 30.6094 20.519 30.8086 20.1323 31.0078C19.1596 31.5117 18.1987 30.3516 18.8667 29.4961C19.2534 29.0156 19.8628 28.9922 20.3667 29.4492Z" fill="#706F6F"/>
<path d="M8.51922 35.4375C6.32781 36.0469 5.51922 38.6953 6.98406 40.418C7.64031 41.1797 8.20281 41.4258 9.3161 41.4258C10.1247 41.4258 10.3239 41.3789 10.8044 41.1094C12.6208 40.0313 12.9372 37.6875 11.4606 36.2109C10.7223 35.4727 9.52703 35.1563 8.51922 35.4375ZM9.76141 37.5234C10.1481 37.7227 10.3005 37.9805 10.3122 38.4141C10.3122 39.3047 9.18719 39.7383 8.58953 39.0703C7.83953 38.25 8.78875 37.0078 9.76141 37.5234Z" fill="#706F6F"/>
<path d="M18.9484 35.4024C18.2804 35.5664 17.9054 35.7891 17.3781 36.3633C16.5109 37.3008 16.3468 38.5899 16.921 39.7734C18.0695 42.1289 21.3976 42.0234 22.4874 39.6094C22.9328 38.625 22.7335 37.2774 22.0304 36.4219C21.3742 35.625 19.9445 35.1563 18.9484 35.4024ZM20.3312 37.6758C20.7531 38.0859 20.7648 38.6953 20.3546 39.1055C19.9445 39.5156 19.3351 39.5039 18.9249 39.082C18.5148 38.6836 18.5382 38.168 18.9718 37.7227C19.4171 37.2891 19.9328 37.2656 20.3312 37.6758Z" fill="#706F6F"/>
<path d="M41.308 28.1485C34.9095 28.6055 29.7299 33.7149 29.0619 40.1953C28.5345 45.3516 31.0306 50.3203 35.4955 53.0156C39.6791 55.5352 45.058 55.5703 49.2181 53.0977C53.6947 50.4375 56.2494 45.457 55.7689 40.3125C55.4877 37.2188 54.2689 34.5235 52.1478 32.2969C49.2767 29.2617 45.5385 27.832 41.308 28.1485ZM41.3666 31.2891C41.3666 32.0156 41.4252 32.461 41.5424 32.6953C41.9174 33.4219 43.0775 33.3164 43.3588 32.543C43.4174 32.3555 43.476 31.7461 43.476 31.1953V30.1992L44.1205 30.2813C44.9877 30.375 46.5228 30.8789 47.5189 31.3711C48.726 31.9688 49.64 32.6719 50.6947 33.7852C52.476 35.6719 53.5306 38.0274 53.7533 40.6172L53.8236 41.461L52.5814 41.5078C51.4681 41.543 51.3158 41.5664 51.0463 41.8242C50.8236 42.0352 50.7416 42.2227 50.7416 42.5274C50.7533 43.336 51.1986 43.5938 52.6283 43.5938C53.7299 43.5938 53.7181 43.5352 53.1674 45.1172C51.7377 49.2656 48.3861 52.043 43.9213 52.7813L43.4994 52.8633L43.4525 51.6094C43.4174 50.4141 43.4056 50.3555 43.0892 50.086C42.6674 49.7227 42.1752 49.7227 41.7533 50.086C41.4369 50.3555 41.4252 50.4141 41.39 51.6094L41.3431 52.8516L40.8627 52.7813C37.0541 52.1953 33.7845 49.793 32.1556 46.3711C31.7924 45.5977 31.2885 44.086 31.2885 43.7461C31.2885 43.6641 31.6635 43.6055 32.39 43.5703C33.3744 43.5352 33.5267 43.5 33.7963 43.2539C34.2181 42.8555 34.2181 42.2227 33.7963 41.8242C33.5267 41.5664 33.3744 41.543 32.2611 41.5078L31.0189 41.461L31.101 40.4883C31.1713 39.4453 31.5697 37.9219 32.0385 36.8789C33.14 34.3711 35.4838 32.1094 38.1088 31.0078C38.9994 30.6328 40.4056 30.2578 40.9916 30.2461L41.3666 30.2344V31.2891Z" fill="#706F6F"/>
<path d="M47.9766 36.5859C47.7891 36.7266 46.5469 37.7578 45.2109 38.8711C43.875 39.9844 42.7383 40.8984 42.6797 40.8984C42.6211 40.8984 42.293 40.4766 41.9531 39.9609C41.2148 38.8477 40.7812 38.4375 40.3008 38.4375C39.8086 38.4375 39.375 38.8945 39.375 39.4219C39.375 39.75 39.6211 40.1953 40.582 41.625C41.9062 43.5937 42.1289 43.7812 42.8203 43.4414C43.4883 43.1133 49.3828 38.1094 49.5469 37.7344C49.8164 37.0664 49.2891 36.3281 48.5273 36.3281C48.4102 36.3281 48.1641 36.4453 47.9766 36.5859Z" fill="#706F6F"/>
</svg>
