<svg width="8" height="13" viewBox="0 0 8 13" fill="none" xmlns="http://www.w3.org/2000/svg">
    <path d="M1.22238 0.619903L0.621259 1.22106C0.540986 1.30117 0.500976 1.39344 0.500976 1.49776C0.500976 1.60183 0.540986 1.69407 0.621259 1.77417L5.34677 6.49994L0.621386 11.2255C0.541113 11.3056 0.501103 11.3979 0.501103 11.5021C0.501103 11.6063 0.541113 11.6985 0.621386 11.7786L1.22255 12.3797C1.30265 12.46 1.39488 12.5 1.49912 12.5C1.60327 12.5 1.69551 12.4599 1.77561 12.3797L7.37894 6.77651C7.45909 6.69641 7.49914 6.60413 7.49914 6.49994C7.49914 6.39574 7.45909 6.30363 7.37894 6.22357L1.77561 0.619903C1.69546 0.539798 1.60323 0.499999 1.49912 0.499999C1.39488 0.499999 1.30265 0.539798 1.22238 0.619903Z" fill="#000"/>
</svg>