<!-- icon666.com - MILLIONS OF FREE VECTOR ICONS --><svg enable-background="new 0 0 512 512" viewBox="0 0 512 512" xmlns="http://www.w3.org/2000/svg"><g id="_x34_5_Users"><g><g><path d="m241.067 273.459c-1.826 0-3.523.949-4.477 2.508l-40.995 66.908-40.995-66.908c-.954-1.559-2.651-2.508-4.477-2.508-74.877 0-135.795 60.918-135.795 135.797v67.297c0 17.374 14.133 31.508 31.508 31.508h299.518c17.374 0 31.508-14.133 31.508-31.508v-67.297c0-74.879-60.918-135.797-135.795-135.797zm125.292 203.095c0 11.582-9.421 21.005-21.005 21.005h-41.354v-66.428c0-2.9-2.349-5.251-5.251-5.251s-5.251 2.351-5.251 5.251v66.428h-195.805v-66.428c0-2.9-2.349-5.251-5.251-5.251s-5.251 2.351-5.251 5.251v66.428h-41.355c-11.585 0-21.005-9.423-21.005-21.005v-67.297c0-68.113 54.626-123.708 122.369-125.262l43.918 71.674c1.908 3.118 7.046 3.118 8.954 0l43.918-71.674c67.744 1.554 122.369 57.149 122.369 125.262z"></path><path d="m97.995 128.595c2.867-.438 4.836-3.121 4.395-5.987-.692-4.505-1.041-9.182-1.041-13.905 0-51.977 42.287-94.262 94.262-94.262s94.262 42.285 94.262 94.262c0 4.777-.349 9.51-1.041 14.072-.436 2.867 1.533 5.544 4.4 5.979 2.845.438 5.542-1.522 5.979-4.405.774-5.079 1.164-10.344 1.164-15.646 0-57.767-46.995-104.764-104.764-104.764s-104.765 46.997-104.765 104.764c0 5.254.39 10.469 1.164 15.5.442 2.861 3.124 4.815 5.985 4.392z"></path><path d="m238.595 113.172c-28.933 15.421-57.067 15.421-86 0-18.451-9.828-40.4 2.866-42.354 23.297-5.809 60.067 34.162 122.567 85.354 122.567 51.836 0 91.098-63.175 85.354-122.567-1.95-20.393-23.867-33.144-42.354-23.297zm-43 135.361c-46.188 0-79.958-58.211-74.903-111.059 1.246-12.997 15.161-21.319 26.959-15.036 31.81 16.954 64.067 16.954 95.887 0 11.779-6.276 25.71 2.009 26.959 15.036 5.135 53.669-29.617 111.059-74.902 111.059z"></path><path d="m497.205 229.938-16.949-107.241c-2.882-18.249-18.385-31.495-36.862-31.495h-65.672c-18.472 0-33.974 13.246-36.862 31.495l-16.949 107.241c-3.584 22.659 13.947 43.149 36.862 43.149h99.569c22.945 0 40.443-20.515 36.863-43.149zm-36.861 32.647h-99.569c-16.482 0-29.061-14.741-26.492-31.005l16.949-107.241c2.077-13.115 13.221-22.633 26.492-22.633h65.672c13.277 0 24.421 9.518 26.492 22.633l16.949 107.241c2.571 16.282-10.027 31.005-26.493 31.005z"></path><path d="m433.57 129.497c-2.903 0-5.251 2.351-5.251 5.251v23.013c0 9.792-7.964 17.759-17.759 17.759s-17.759-7.967-17.759-17.759v-23.013c0-2.9-2.349-5.251-5.251-5.251-2.903 0-5.251 2.351-5.251 5.251v23.013c0 15.585 12.677 28.262 28.262 28.262s28.262-12.677 28.262-28.262v-23.013c-.002-2.899-2.351-5.251-5.253-5.251z"></path></g></g></g></svg>