<svg width="6" height="5" viewBox="0 0 6 5" fill="none" xmlns="http://www.w3.org/2000/svg">
    <path d="M5.94005 1.11116L5.63947 0.810599C5.59942 0.770463 5.55328 0.750458 5.50112 0.750458C5.44908 0.750458 5.40297 0.770463 5.36292 0.810599L3.00003 3.17336L0.637253 0.810662C0.59718 0.770526 0.551064 0.750521 0.498966 0.750521C0.446848 0.750521 0.400731 0.770526 0.360679 0.810662L0.0601413 1.11124C0.020005 1.15129 0 1.19741 0 1.24953C0 1.30161 0.0200682 1.34772 0.0601413 1.38777L2.86174 4.18944C2.9018 4.22951 2.94793 4.24954 3.00003 4.24954C3.05213 4.24954 3.09818 4.22951 3.13821 4.18944L5.94005 1.38777C5.9801 1.3477 6 1.30158 6 1.24953C6 1.19741 5.9801 1.15129 5.94005 1.11116Z" fill="#A8A8A8"/>
</svg>