<svg width="19" height="18" viewBox="0 0 19 18" fill="none" xmlns="http://www.w3.org/2000/svg">
<path d="M13.7352 0.899995H4.93152C4.68973 0.899658 4.45768 0.995303 4.28635 1.16592C4.11502 1.33654 4.01841 1.56818 4.01774 1.80998V16.1887C4.016 16.3686 4.06842 16.5448 4.16819 16.6945C4.26796 16.8441 4.41046 16.9603 4.57715 17.0279C4.74337 17.0981 4.92666 17.1175 5.10392 17.0838C5.28118 17.05 5.44447 16.9645 5.5732 16.838L9.22452 13.2512C9.25361 13.2228 9.29268 13.2069 9.33337 13.2069C9.37405 13.2069 9.41312 13.2228 9.44221 13.2512L13.0948 16.8367C13.2234 16.9633 13.3867 17.049 13.564 17.0827C13.7413 17.1165 13.9247 17.097 14.0909 17.0266C14.2571 16.9589 14.3992 16.8428 14.4987 16.6935C14.5982 16.5441 14.6506 16.3682 14.649 16.1887V1.80998C14.6483 1.56818 14.5517 1.33654 14.3804 1.16592C14.2091 0.995303 13.977 0.899658 13.7352 0.899995ZM13.8896 16.1887C13.8902 16.2186 13.8815 16.2479 13.8647 16.2726C13.848 16.2973 13.8239 16.3162 13.796 16.3267C13.7679 16.3398 13.7365 16.3438 13.7061 16.3381C13.6757 16.3325 13.6478 16.3174 13.6264 16.2951L9.97377 12.7095C9.80221 12.5425 9.5722 12.449 9.33273 12.449C9.09327 12.449 8.86326 12.5425 8.6917 12.7095L5.04037 16.2951C5.01884 16.3172 4.99098 16.3322 4.9606 16.3378C4.93023 16.3435 4.89884 16.3396 4.87077 16.3267C4.8428 16.3162 4.81877 16.2973 4.802 16.2726C4.78522 16.2479 4.77653 16.2186 4.77712 16.1887V1.80998C4.77778 1.76958 4.79439 1.73109 4.82331 1.70288C4.85223 1.67467 4.89112 1.65903 4.93152 1.65937H13.7352C13.7756 1.65903 13.8145 1.67467 13.8434 1.70288C13.8723 1.73109 13.889 1.76958 13.8896 1.80998V16.1887Z" fill="#000"/>
</svg>
