<svg width="19" height="18" viewBox="0 0 19 18" fill="none" xmlns="http://www.w3.org/2000/svg">
<g clip-path="url(#clip0_3766_5761)">
<path d="M11.0727 1.53913C10.941 1.59965 10.8236 1.72423 10.7737 1.85594C10.7453 1.92713 10.7346 4.00948 10.7346 8.70099V15.4428H9.66671H8.59884V10.8225C8.59884 6.39795 8.59528 6.19861 8.53121 6.08115C8.49561 6.01351 8.41374 5.92097 8.34967 5.87469L8.2322 5.79638H5.65151C3.07083 5.79638 3.07083 5.79638 2.94624 5.87469C2.87505 5.91741 2.79674 6.00995 2.75758 6.09538C2.69351 6.23421 2.68995 6.43354 2.68995 10.8403V15.4428H1.80362C0.945762 15.4428 0.917285 15.4464 0.799819 15.5247C0.472339 15.7418 0.479458 16.169 0.814058 16.4181L0.913725 16.4929H9.66671H18.4197L18.5194 16.4181C18.854 16.169 18.8611 15.7489 18.53 15.5211C18.4161 15.4464 18.3877 15.4428 17.5298 15.4428H16.6435L16.6363 8.6476L16.6257 1.84882L16.5509 1.75271C16.5118 1.69932 16.4335 1.62101 16.3801 1.58185C16.284 1.5071 16.2448 1.5071 13.7317 1.49998C11.6601 1.49286 11.1582 1.49998 11.0727 1.53913ZM15.5578 8.99999V15.425L13.6819 15.4357L11.8025 15.4428V8.99999V2.55717L13.6819 2.56429L15.5578 2.57497V8.99999ZM7.53097 11.1535V15.4428L5.65507 15.4357L3.77562 15.425L3.76494 11.1429L3.75782 6.86425H5.64439H7.53097V11.1535Z" fill="#000"/>
</g>
<defs>
<clipPath id="clip0_3766_5761">
<rect width="18" height="18" fill="white" transform="translate(0.666626)"/>
</clipPath>
</defs>
</svg>
