<svg width="27" height="27" viewBox="0 0 27 27" fill="none" xmlns="http://www.w3.org/2000/svg">
<path fill-rule="evenodd" clip-rule="evenodd" d="M13.5 0C6.04416 0 0 6.04416 0 13.5C0 20.9558 6.04416 27 13.5 27C20.9558 27 27 20.9558 27 13.5C27 6.04416 20.9558 0 13.5 0ZM16.8713 19.0973L18.9 8.5065C18.9 7.8016 17.9639 8.22754 17.9639 8.22754L6.57388 12.8546C6.57388 12.8546 6.03457 13.0454 6.07743 13.3981C6.11972 13.7503 6.55941 13.9123 6.55941 13.9123L9.35333 14.8858L16.5953 10.1232C16.9804 9.88114 17.1864 10.0719 16.8546 10.3924C16.6404 10.5993 11.7376 15.1641 11.1054 15.752L11.1271 15.763L15.8078 19.4794C16.5875 19.8316 16.8713 19.0973 16.8713 19.0973Z" fill="#27A6E5"/>
</svg>
