<svg width="30" height="30" viewBox="0 0 30 30" fill="none" xmlns="http://www.w3.org/2000/svg">
<path d="M5 12.7325H11.5C11.7765 12.7325 12 12.5085 12 12.2325C12 11.9565 11.7765 11.7325 11.5 11.7325H5C4.7235 11.7325 4.5 11.9565 4.5 12.2325C4.5 12.5085 4.7235 12.7325 5 12.7325Z" fill="#303030"/>
<path d="M18 14.7325H5C4.7235 14.7325 4.5 14.9565 4.5 15.2325C4.5 15.5085 4.7235 15.7325 5 15.7325H18C18.2765 15.7325 18.5 15.5085 18.5 15.2325C18.5 14.9565 18.2765 14.7325 18 14.7325Z" fill="#303030"/>
<path d="M18 17.7325H5C4.7235 17.7325 4.5 17.9565 4.5 18.2325C4.5 18.5085 4.7235 18.7325 5 18.7325H18C18.2765 18.7325 18.5 18.5085 18.5 18.2325C18.5 17.9565 18.2765 17.7325 18 17.7325Z" fill="#303030"/>
<path d="M27.036 1.2675L9.965 1.2325C8.33 1.2325 7 2.5625 7 4.1975V6.7595L2.965 6.768C1.33 6.768 0 8.098 0 9.733V20.3035C0 21.9385 1.33 23.268 2.965 23.268H6V28.268C6 28.4745 6.127 28.66 6.32 28.7345C6.3785 28.757 6.4395 28.768 6.5 28.768C6.638 28.768 6.7735 28.7105 6.87 28.6045L11.722 23.267L20.035 23.233C21.67 23.233 23 21.903 23 20.2685V20.212L25.63 23.105C25.7265 23.211 25.862 23.2685 26 23.2685C26.0605 23.2685 26.1215 23.2575 26.18 23.235C26.373 23.1605 26.5 22.975 26.5 22.7685V17.7685H27.035C28.67 17.7685 30 16.4385 30 14.804V4.2325C30 2.598 28.6705 1.268 27.036 1.2675ZM22 20.268C22 21.3515 21.1185 22.2325 20.033 22.2325L11.498 22.2675C11.358 22.268 11.224 22.3275 11.13 22.431L7 26.9745V22.7675C7 22.4915 6.7765 22.2675 6.5 22.2675H2.965C1.8815 22.2675 1 21.386 1 20.303V9.7325C1 8.649 1.8815 7.7675 2.966 7.7675L7.5 7.758C7.5005 7.758 7.5005 7.758 7.501 7.758L20.035 7.732C21.1185 7.732 22 8.6135 22 9.697V18.9175V20.268ZM29 14.803C29 15.8865 28.1185 16.7675 27.035 16.7675H26C25.7235 16.7675 25.5 16.9915 25.5 17.2675V21.4745L23 18.7245V9.6975C23 8.0625 21.67 6.7325 20.034 6.7325L8 6.757V4.197C8 3.1135 8.8815 2.232 9.964 2.232L27.0345 2.267C27.035 2.267 27.035 2.267 27.0355 2.267C28.119 2.267 29.0005 3.1485 29.0005 4.232L29 14.803Z" fill="#303030"/>
</svg>
