<svg width="18" height="18" viewBox="0 0 18 18" fill="none" xmlns="http://www.w3.org/2000/svg">
<path d="M2.25 9.75L13.9395 9.75L9.96975 13.7198C9.67688 14.0126 9.67688 14.4874 9.96975 14.7803C10.2626 15.0731 10.7376 15.0731 11.0304 14.7803L16.2804 9.53025C16.5733 9.23738 16.5733 8.76244 16.2804 8.46975L11.0304 3.21975C10.884 3.07331 10.692 3 10.5 3C10.3082 3 10.1162 3.07331 9.96975 3.21975C9.67687 3.51263 9.67687 3.98756 9.96975 4.28025L13.9395 8.25L2.25 8.25C1.836 8.25 1.5 8.58581 1.5 9C1.5 9.41419 1.83581 9.75 2.25 9.75Z" fill="#000"/>
</svg>
