<svg width="21" height="20" viewBox="0 0 21 20" fill="none" xmlns="http://www.w3.org/2000/svg">
<path d="M19.1567 3.63635H2.27362C2.1014 3.63635 1.93623 3.73213 1.81446 3.90262C1.69268 4.07311 1.62427 4.30434 1.62427 4.54544C1.62427 4.78655 1.69268 5.01778 1.81446 5.18827C1.93623 5.35876 2.1014 5.45453 2.27362 5.45453H19.1567C19.329 5.45453 19.4941 5.35876 19.6159 5.18827C19.7377 5.01778 19.8061 4.78655 19.8061 4.54544C19.8061 4.30434 19.7377 4.07311 19.6159 3.90262C19.4941 3.73213 19.329 3.63635 19.1567 3.63635Z" fill="white"/>
<path d="M2.29093 10.9091H10.9576C11.1344 10.9091 11.304 10.8133 11.429 10.6428C11.554 10.4723 11.6243 10.2411 11.6243 10C11.6243 9.7589 11.554 9.52767 11.429 9.35718C11.304 9.18669 11.1344 9.09091 10.9576 9.09091H2.29093C2.11412 9.09091 1.94455 9.18669 1.81953 9.35718C1.69451 9.52767 1.62427 9.7589 1.62427 10C1.62427 10.2411 1.69451 10.4723 1.81953 10.6428C1.94455 10.8133 2.11412 10.9091 2.29093 10.9091Z" fill="white"/>
<path d="M16.4349 14.5454H2.26821C2.09742 14.5454 1.93364 14.6412 1.81287 14.8117C1.69211 14.9822 1.62427 15.2134 1.62427 15.4545C1.62427 15.6956 1.69211 15.9269 1.81287 16.0974C1.93364 16.2678 2.09742 16.3636 2.26821 16.3636H16.4349C16.6057 16.3636 16.7694 16.2678 16.8902 16.0974C17.011 15.9269 17.0788 15.6956 17.0788 15.4545C17.0788 15.2134 17.011 14.9822 16.8902 14.8117C16.7694 14.6412 16.6057 14.5454 16.4349 14.5454Z" fill="white"/>
</svg>
