<svg width="23" height="22" viewBox="0 0 23 22" fill="none" xmlns="http://www.w3.org/2000/svg">
<g clip-path="url(#clip0_3737_5796)">
<path fill-rule="evenodd" clip-rule="evenodd" d="M13.9445 15.1738C12.7802 16.0356 16.4006 12.3334 15.3704 13.7407C15.3962 13.7387 15.3484 13.8167 15.1882 14.0123C15.1882 14.0123 17.9396 16.7451 19.2902 18.1359C19.759 18.6429 18.9131 19.6549 18.3383 19.1266C17.1153 17.94 14.2212 14.9909 14.2168 14.9861L13.9445 15.1738Z" fill="white"/>
<path d="M9.9016 16.5557C11.6719 16.5385 13.4244 15.8053 14.6845 14.5599C16.1812 13.0807 16.9519 10.8924 16.6831 8.80308C16.2225 5.22293 13.2793 2.7933 9.8576 2.7933C7.25782 2.7933 4.73126 4.41959 3.62301 6.77771C2.77463 8.58309 2.77292 10.7628 3.62301 12.5713C4.72335 14.9129 7.20867 16.5306 9.81326 16.5557C9.84282 16.5557 9.87239 16.5557 9.9016 16.5557ZM9.82048 15.4086C7.1767 15.3831 4.70995 13.3385 4.21942 10.7171C3.8736 8.86909 4.52638 6.86915 5.88626 5.55671C7.4737 4.02393 9.96898 3.51071 12.0439 4.37937C13.9001 5.15659 15.2895 6.96127 15.5456 8.94952C15.7649 10.6538 15.1534 12.44 13.9517 13.6702C12.8974 14.7496 11.4189 15.3938 9.89439 15.4086C9.86964 15.4086 9.84523 15.4086 9.82048 15.4086Z" fill="white"/>
</g>
<defs>
<clipPath id="clip0_3737_5796">
<rect width="22" height="22" fill="white" transform="translate(0.215088)"/>
</clipPath>
</defs>
</svg>
