<svg width="4" height="6" viewBox="0 0 4 6" fill="none" xmlns="http://www.w3.org/2000/svg">
<path d="M0.61116 0.0599518L0.310601 0.360532C0.270464 0.400584 0.250459 0.446722 0.250459 0.498882C0.250459 0.550916 0.270464 0.597033 0.310601 0.637085L2.67336 2.99997L0.310664 5.36275C0.270528 5.40282 0.250523 5.44894 0.250523 5.50103C0.250523 5.55315 0.270528 5.59927 0.310664 5.63932L0.611244 5.93986C0.651296 5.98 0.697413 6 0.749532 6C0.801608 6 0.847724 5.97993 0.887777 5.93986L3.68944 3.13826C3.72952 3.0982 3.74954 3.05207 3.74954 2.99997C3.74954 2.94787 3.72952 2.90182 3.68944 2.86179L0.887776 0.0599518C0.847703 0.0198998 0.801586 4.52747e-07 0.749531 4.55022e-07C0.697413 4.573e-07 0.651296 0.0198998 0.61116 0.0599518Z" fill="#A8A8A8"/>
</svg>
