<svg width="21" height="21" viewBox="0 0 21 21" fill="none" xmlns="http://www.w3.org/2000/svg">
<g clip-path="url(#clip0_266_1945)">
<path d="M20.3072 0.52375C20.2684 0.5075 20.2278 0.502812 20.1875 0.502812V0.5H16.125H12.375H8.625C8.54187 0.5 8.4625 0.532813 8.40406 0.591563L4.65437 4.34125C4.59781 4.39781 4.5625 4.47594 4.5625 4.5625V12.375C4.5625 12.5478 4.70219 12.6875 4.875 12.6875H16.4375C16.5241 12.6875 16.6022 12.6522 16.6588 12.5956L20.4084 8.84594C20.4672 8.7875 20.5 8.70813 20.5 8.625V0.8125C20.5 0.68625 20.4241 0.571875 20.3072 0.52375ZM16.3081 4.25H13.1294L16.2544 1.125H19.4331L16.3081 4.25ZM15.3706 1.125L12.1541 4.34156C12.0953 4.4 12.0625 4.47937 12.0625 4.5625V7.41625L11.6109 7.115C11.5059 7.04469 11.3694 7.04469 11.2644 7.115L10.5 7.62438L9.73594 7.115C9.68344 7.08 9.62281 7.0625 9.5625 7.0625C9.50219 7.0625 9.44156 7.08 9.38906 7.115L8.9375 7.41625V4.69187L12.5044 1.125H15.3706ZM8.75437 1.125H11.6206L8.49563 4.25H5.62937L8.75437 1.125ZM16.125 12.0625H5.1875V4.875H8.3125V8C8.3125 8.11531 8.37594 8.22125 8.4775 8.27563C8.57875 8.33 8.7025 8.32375 8.79813 8.26L9.5625 7.75062L10.3266 8.26C10.4316 8.33031 10.5681 8.33031 10.6731 8.26L11.4375 7.75062L12.2016 8.26C12.2537 8.29469 12.3144 8.3125 12.375 8.3125C12.4256 8.3125 12.4763 8.30031 12.5225 8.27563C12.6241 8.22125 12.6875 8.11531 12.6875 8V4.875H16.125V12.0625ZM19.875 8.49563L16.75 11.6206V4.69187L19.875 1.56687V8.49563Z" fill="#303030"/>
<path d="M6.4375 18.9375C6.61031 18.9375 6.75 18.7978 6.75 18.625H7.61375L10.9547 20.2956C11.0991 20.3678 11.2556 20.4041 11.4116 20.4041C11.5894 20.4041 11.7669 20.3575 11.9259 20.2647L18.7434 16.2875C19.0559 16.1053 19.25 15.7675 19.25 15.4056C19.25 15.1034 19.1172 14.8184 18.8859 14.6237C18.655 14.4294 18.3506 14.3475 18.0538 14.3991L11.8562 15.4769L10.0959 13.7166C10.0375 13.6578 9.95813 13.625 9.875 13.625H6.75C6.75 13.4522 6.61031 13.3125 6.4375 13.3125H5.1875H0.5V13.9375H4.875V18.3125H0.5V18.9375H5.1875H6.4375ZM9.74563 14.25L12.2078 16.7122C12.3141 16.8184 12.375 16.9656 12.375 17.1163C12.375 17.4313 12.1188 17.6875 11.8038 17.6875C11.6534 17.6875 11.5059 17.6266 11.3997 17.5203L9.78344 15.9041L9.34156 16.3459L10.9578 17.9622C11.1838 18.1881 11.4841 18.3125 11.8038 18.3125C12.4631 18.3125 13 17.7756 13 17.1163C13 16.7969 12.8756 16.4963 12.6497 16.2703L12.3966 16.0172L18.1603 15.0147C18.2769 14.9937 18.3938 15.0263 18.4834 15.1019C18.5734 15.1775 18.625 15.2881 18.625 15.4053C18.625 15.5456 18.5497 15.6769 18.4284 15.7475L11.6112 19.7247C11.4956 19.7922 11.3547 19.7966 11.2344 19.7366L7.8275 18.0331C7.78406 18.0112 7.73594 18 7.6875 18H6.75V14.25H9.74563ZM6.125 18.3125H5.5V13.9375H6.125V18.3125Z" fill="#303030"/>
<path d="M3.3125 3.3125C3.3125 3.48531 3.45219 3.625 3.625 3.625C3.79781 3.625 3.9375 3.48531 3.9375 3.3125C3.9375 2.79562 4.35812 2.375 4.875 2.375C5.04781 2.375 5.1875 2.23531 5.1875 2.0625C5.1875 1.88969 5.04781 1.75 4.875 1.75C4.35812 1.75 3.9375 1.32938 3.9375 0.8125C3.9375 0.639688 3.79781 0.5 3.625 0.5C3.45219 0.5 3.3125 0.639688 3.3125 0.8125C3.3125 1.32938 2.89188 1.75 2.375 1.75C2.20219 1.75 2.0625 1.88969 2.0625 2.0625C2.0625 2.23531 2.20219 2.375 2.375 2.375C2.89188 2.375 3.3125 2.79562 3.3125 3.3125ZM3.625 1.74906C3.71406 1.86781 3.81969 1.97344 3.93844 2.0625C3.81969 2.15156 3.71406 2.25719 3.625 2.37594C3.53594 2.25719 3.43031 2.15156 3.31156 2.0625C3.43031 1.97344 3.53594 1.86781 3.625 1.74906Z" fill="#303030"/>
</g>
<defs>
<clipPath id="clip0_266_1945">
<rect width="20" height="20" fill="white" transform="translate(0.5 0.5)"/>
</clipPath>
</defs>
</svg>
