<svg width="21" height="21" viewBox="0 0 21 21" fill="none" xmlns="http://www.w3.org/2000/svg">
<g clip-path="url(#clip0_266_1956)">
<path d="M10.5002 21C10.3515 21.0007 10.2041 20.9721 10.0665 20.9158C9.9288 20.8595 9.80358 20.7766 9.69797 20.6719L4.30359 15.2775C3.45188 14.4305 2.77768 13.4221 2.32047 12.3113C1.86325 11.2005 1.63221 10.0097 1.64086 8.80852C1.63719 7.64555 1.86558 6.49354 2.31266 5.41994C2.75973 4.34634 3.41651 3.37272 4.24453 2.5561C5.91686 0.922091 8.16215 0.00727081 10.5002 0.00727081C12.8383 0.00727081 15.0836 0.922091 16.7559 2.5561C17.584 3.37272 18.2407 4.34634 18.6878 5.41994C19.1349 6.49354 19.3633 7.64555 19.3596 8.80852C19.3683 10.0097 19.1372 11.2005 18.68 12.3113C18.2228 13.4221 17.5486 14.4305 16.6969 15.2775L11.3025 20.662C11.1977 20.7685 11.0728 20.8532 10.9352 20.9112C10.7975 20.9692 10.6496 20.9994 10.5002 21ZM10.5002 0.984376C8.41842 0.979582 6.41873 1.79608 4.93523 3.25664C4.2003 3.98224 3.61745 4.84713 3.22081 5.80071C2.82417 6.75428 2.6217 7.77739 2.62523 8.81016C2.61736 9.88148 2.82326 10.9436 3.23089 11.9344C3.63853 12.9251 4.2397 13.8246 4.99922 14.5802L10.392 19.9648C10.4059 19.9792 10.4226 19.9907 10.441 19.9985C10.4595 20.0064 10.4794 20.0104 10.4994 20.0104C10.5195 20.0104 10.5393 20.0064 10.5578 19.9985C10.5763 19.9907 10.5929 19.9792 10.6069 19.9648L16.0013 14.5802C16.7608 13.8246 17.3619 12.9251 17.7696 11.9344C18.1772 10.9436 18.3831 9.88148 18.3752 8.81016C18.3788 7.77739 18.1763 6.75428 17.7797 5.80071C17.383 4.84713 16.8002 3.98224 16.0652 3.25664C14.5817 1.79608 12.582 0.979582 10.5002 0.984376Z" fill="#303030"/>
<path d="M10.4999 13.3563C9.46583 13.3559 8.46393 12.9969 7.66479 12.3407C6.86565 11.6845 6.31869 10.7715 6.11707 9.75735C5.91544 8.74315 6.07162 7.69042 6.559 6.77844C7.04638 5.86646 7.83483 5.15162 8.79006 4.75567C9.74529 4.35972 10.8082 4.30713 11.7979 4.60687C12.7875 4.90662 13.6427 5.54015 14.2177 6.39957C14.7927 7.259 15.052 8.29118 14.9515 9.32032C14.8509 10.3495 14.3968 11.3119 13.6663 12.0438C13.2509 12.4603 12.7573 12.7906 12.214 13.0158C11.6706 13.2411 11.0881 13.3568 10.4999 13.3563ZM10.4999 5.40094C9.69309 5.40222 8.91169 5.68315 8.28878 6.19588C7.66586 6.7086 7.23995 7.42141 7.08359 8.21291C6.92722 9.0044 7.05008 9.82562 7.43123 10.5367C7.81237 11.2478 8.42824 11.8048 9.17393 12.1127C9.91963 12.4207 10.749 12.4607 11.5209 12.2258C12.2927 11.9909 12.9593 11.4957 13.407 10.8246C13.8547 10.1534 14.056 9.3478 13.9764 8.54494C13.8968 7.74209 13.5414 6.99164 12.9707 6.42141C12.6462 6.09713 12.2609 5.84006 11.837 5.66495C11.413 5.48984 10.9586 5.40012 10.4999 5.40094Z" fill="#303030"/>
</g>
<defs>
<clipPath id="clip0_266_1956">
<rect width="21" height="21" fill="white"/>
</clipPath>
</defs>
</svg>
