<svg width="30" height="30" viewBox="0 0 30 30" fill="none" xmlns="http://www.w3.org/2000/svg">
<g clip-path="url(#clip0_265_2775)">
<path d="M12.4512 0.451172C11.4199 1.00195 0.181641 7.53516 0.105469 7.62891C0.00585937 7.74023 0 8.17969 0 15C0 21.8203 0.00585937 22.2598 0.105469 22.3711C0.1875 22.4707 11.7422 29.1797 12.4746 29.5547C12.5801 29.6133 12.7441 29.6484 12.8262 29.6367C12.9609 29.6191 14.6953 28.6289 22.4414 24.1523C23.1328 23.7539 24.0527 23.2207 24.4805 22.9746C24.9141 22.7285 25.3242 22.4707 25.3945 22.4004L25.5234 22.2715L25.7168 22.582C26.0977 23.2148 26.1562 23.4492 26.1621 24.2871C26.1621 24.9961 26.1504 25.0781 25.9922 25.459C25.8984 25.6816 25.7285 26.0156 25.6172 26.1914C25.1777 26.8711 24.2578 27.627 23.2852 28.1133C22.9102 28.3008 22.8516 28.377 22.8516 28.6582C22.8516 28.8926 23.0391 29.0625 23.2969 29.0625C23.7539 29.0625 25.1543 28.6172 25.9629 28.2129C27.0645 27.6563 28.2187 26.6543 28.8457 25.7109C30.1641 23.7305 30.3574 21.3457 29.3555 19.3008C28.6875 17.9297 27.5684 16.8281 26.0859 16.0898L25.5469 15.8145V11.8711C25.5469 9.3457 25.5234 7.86328 25.4883 7.75781C25.4531 7.66406 25.3711 7.54688 25.2949 7.5C25.2246 7.45898 22.4121 5.83008 19.043 3.88477C15.2461 1.69336 12.8672 0.351562 12.7734 0.351562C12.6914 0.357422 12.5508 0.398438 12.4512 0.451172ZM14.4961 2.34375C15.416 2.87109 16.1484 3.32812 16.125 3.3457C15.9609 3.50391 4.875 9.84375 4.79883 9.82617C4.62891 9.7793 1.46484 7.93945 1.48242 7.89844C1.5 7.83984 12.7324 1.34766 12.7852 1.36523C12.8027 1.37109 13.5762 1.81055 14.4961 2.34375ZM18.4453 4.62305C19.166 5.03906 19.7285 5.39062 19.7051 5.4082C19.166 5.74219 8.44922 11.9062 8.4082 11.9121C8.34375 11.9121 5.98828 10.5645 5.87695 10.4648C5.82422 10.418 7.24219 9.56836 11.4434 7.14258C14.543 5.34375 17.0918 3.87891 17.1094 3.87305C17.127 3.87305 17.7246 4.20703 18.4453 4.62305ZM22.3828 6.89648C23.3203 7.43555 24.082 7.89258 24.082 7.91016C24.0762 7.92773 21.5332 9.4043 18.4219 11.1973L12.7676 14.4551L11.3496 13.6406C10.5703 13.1895 9.80859 12.75 9.65625 12.6621C9.50391 12.5801 9.375 12.498 9.375 12.4805C9.38086 12.457 20.5547 5.9707 20.6719 5.92383C20.6777 5.91797 21.4512 6.35742 22.3828 6.89648ZM2.67773 9.7207L4.33008 10.6758L4.34766 13.4238L4.36523 16.1719L4.51172 16.3125C4.59375 16.3945 5.46094 16.9219 6.44531 17.4844C8.34961 18.5801 8.48437 18.6328 8.71875 18.3809C8.84766 18.2461 8.84766 18.2168 8.85937 15.7734L8.87695 13.3008L10.5879 14.2793L12.2988 15.2637L12.3047 21.8086C12.3047 25.4121 12.293 28.3594 12.2754 28.3594C12.2578 28.3594 11.1445 27.7207 9.80273 26.9473C8.45508 26.168 6.61523 25.1074 5.71289 24.5859C4.81055 24.0645 3.36914 23.2266 2.50781 22.7285L0.9375 21.8262V15.2754C0.9375 11.6719 0.955078 8.73633 0.984375 8.74805C1.00781 8.75977 1.76953 9.19922 2.67773 9.7207ZM24.6094 12.0996C24.6094 13.9512 24.5918 15.4688 24.5742 15.4688C24.5566 15.4688 24.3398 15.416 24.0937 15.3516C23.4785 15.1992 22.6699 15.0703 21.9727 15.0234L21.3867 14.9824V14.1387C21.3867 13.3242 21.3809 13.2891 21.2402 13.1543C20.9414 12.8496 20.9004 12.873 18.9375 14.5137C15.2227 17.6191 15.0703 17.7539 15.0469 17.8945C14.9824 18.2344 14.9473 18.2109 19.9687 21.873C20.8301 22.5 20.9883 22.5527 21.2402 22.2949C21.3809 22.1602 21.3867 22.1309 21.3867 21.2695V20.3906L21.5215 20.4141C21.5918 20.4316 21.8145 20.4609 22.0195 20.4785C22.7461 20.5488 23.7012 20.8594 24.3047 21.2227C24.5742 21.3867 24.6094 21.4336 24.6094 21.6035C24.6094 21.7617 24.5684 21.8203 24.3926 21.9375C24.1758 22.0723 13.6348 28.1602 13.377 28.2949L13.2422 28.3652V21.8145V15.2637L14.3437 14.6309C14.9473 14.2852 17.4844 12.8203 19.9805 11.373C22.4766 9.92578 24.5391 8.73633 24.5684 8.73633C24.5918 8.73047 24.6094 10.248 24.6094 12.0996ZM6.62109 11.9941L7.91016 12.7383V14.9824V17.2324L7.75195 17.1445C7.46484 16.998 5.41992 15.8086 5.34961 15.75C5.29102 15.7031 5.27344 15.1758 5.27344 13.4707C5.27344 12.2461 5.28516 11.25 5.30273 11.25C5.32031 11.25 5.91211 11.584 6.62109 11.9941ZM20.5137 15.6855C20.6133 15.8789 20.8184 15.9258 21.6797 15.9609C24.3164 16.0605 26.5371 17.0156 27.8086 18.5977C28.2598 19.1543 28.7227 20.0566 28.8984 20.7129C29.0742 21.3809 29.0742 22.6816 28.8984 23.332C28.7227 23.9883 28.4531 24.5859 28.1133 25.1133C27.7793 25.623 26.9648 26.4727 26.5137 26.7773L26.2207 26.9766L26.3613 26.7773C26.6074 26.4023 26.9414 25.6406 27.041 25.2129C27.1934 24.5918 27.1406 23.5664 26.9297 22.9688C26.2031 20.9004 23.9473 19.5117 21.2871 19.4883C20.4902 19.4824 20.4902 19.4824 20.4492 20.3672L20.4199 21.041L18.3574 19.5293C17.2207 18.6973 16.3008 18 16.3066 17.9766C16.3125 17.9531 17.2441 17.1621 18.3691 16.2129L20.4199 14.4961L20.4375 15.0234C20.4434 15.3164 20.4785 15.6152 20.5137 15.6855Z" fill="#303030"/>
</g>
<defs>
<clipPath id="clip0_265_2775">
<rect width="30" height="30" fill="white"/>
</clipPath>
</defs>
</svg>
