<svg width="18" height="18" viewBox="0 0 18 18" fill="none" xmlns="http://www.w3.org/2000/svg">
<path d="M15.75 9.75L4.0605 9.75L8.03025 13.7198C8.32312 14.0126 8.32312 14.4874 8.03025 14.7803C7.73738 15.0731 7.26244 15.0731 6.96956 14.7803L1.71956 9.53025C1.42669 9.23738 1.42669 8.76244 1.71956 8.46975L6.96956 3.21975C7.116 3.07331 7.308 3 7.5 3C7.69181 3 7.88381 3.07331 8.03025 3.21975C8.32313 3.51263 8.32313 3.98756 8.03025 4.28025L4.0605 8.25L15.75 8.25C16.164 8.25 16.5 8.58581 16.5 9C16.5 9.41419 16.1642 9.75 15.75 9.75Z" fill="#000"/>
</svg>
